<?xml version="1.0" standalone="no"?>
<!DOCTYPE svg PUBLIC "-//W3C//DTD SVG 20010904//EN"
 "http://www.w3.org/TR/2001/REC-SVG-20010904/DTD/svg10.dtd">
<svg version="1.0" xmlns="http://www.w3.org/2000/svg"
 width="7191.000000pt" height="9530.000000pt" viewBox="0 0 7191.000000 9530.000000"
 preserveAspectRatio="xMidYMid meet">

<g transform="translate(0.000000,9530.000000) scale(0.100000,-0.100000)"
fill="#3c3ff116" stroke="none">
<path d="M71191 94864 c-57 -29 -111 -97 -111 -141 0 -28 1 -27 -215 -53 -286
-34 -42205 -4499 -42435 -4520 -118 -11 -232 -21 -252 -24 -32 -3 -38 -1 -38
15 0 27 -33 89 -62 116 -55 51 -167 69 -231 37 -72 -36 -119 -107 -121 -181 0
-24 -2 -43 -4 -43 -2 0 -87 -14 -189 -30 -226 -37 -14796 -2168 -15077 -2206
-192 -25 -199 -25 -209 -7 -32 59 -122 113 -188 113 -144 0 -249 -156 -194
-288 l16 -36 -93 -136 c-122 -178 -1162 -1647 -1388 -1960 -97 -135 -239 -335
-315 -445 -199 -287 -2039 -2884 -2141 -3021 -66 -91 -89 -114 -102 -109 -35
15 -101 17 -137 5 -174 -58 -196 -303 -33 -384 54 -27 117 -34 161 -17 23 9
34 1 134 -102 194 -201 10168 -11009 10171 -11022 2 -10 -688 -1469 -702
-1482 -4 -4 -7619 3841 -7851 3964 l-129 69 -1 59 c-2 162 -153 259 -298 192
-75 -34 -110 -86 -115 -171 -6 -99 44 -177 134 -212 l41 -16 7 -128 c6 -123
669 -22562 680 -23031 l5 -225 -42 -12 c-101 -28 -162 -104 -161 -202 0 -87
61 -179 130 -196 13 -3 24 -9 24 -13 0 -29 -2672 -12102 -2801 -12655 -60
-259 -56 -247 -84 -240 -13 3 -48 -1 -78 -10 -100 -29 -170 -141 -148 -236 24
-108 100 -170 209 -170 l60 0 10 -37 c6 -21 27 -90 47 -153 54 -172 2646
-8830 2719 -9085 l64 -219 -27 -14 c-39 -20 -61 -43 -84 -87 -27 -54 -28 -141
0 -188 l21 -34 -422 -420 c-361 -360 -2691 -2655 -3249 -3201 l-187 -183 -32
17 c-72 37 -187 15 -245 -48 -74 -79 -67 -234 13 -297 13 -10 24 -23 24 -29 0
-6 -33 -95 -74 -199 -101 -257 -4789 -11783 -4864 -11958 l-60 -139 -40 3
c-43 3 -120 -26 -156 -57 -26 -24 -66 -111 -66 -147 0 -117 95 -215 210 -215
56 0 121 29 159 71 l29 31 103 -38 c145 -52 14585 -5596 14850 -5701 l216 -85
0 -62 c-1 -120 78 -207 196 -214 51 -3 70 1 107 20 65 35 103 93 108 167 6 90
-19 146 -90 195 l-23 16 43 173 c43 171 1997 7440 2069 7695 l38 134 42 -6
c87 -12 187 43 220 122 7 17 18 32 24 32 42 0 10174 -1895 10519 -1967 l134
-29 13 -43 c24 -84 77 -131 173 -156 l45 -11 43 -150 c49 -172 2135 -7911
2211 -8204 l51 -194 -37 -30 c-92 -76 -98 -234 -11 -312 118 -108 300 -58 344
95 15 49 15 60 2 105 -9 28 -18 58 -22 67 -6 13 24 45 121 131 146 131 10653
9264 10986 9550 l218 187 45 -32 c40 -28 53 -32 113 -32 59 0 75 4 120 32 l51
32 128 -83 c170 -111 4371 -2964 4493 -3051 l96 -69 -14 -35 c-24 -56 -14
-150 21 -200 35 -50 112 -91 172 -91 66 0 143 45 179 106 l30 50 155 -28 c219
-41 14880 -2970 15135 -3024 254 -54 245 -51 245 -73 0 -46 32 -120 67 -154
132 -132 353 -39 353 148 0 118 -71 192 -195 204 l-59 6 -57 140 c-65 160
-4651 12150 -4769 12470 l-78 210 43 37 c49 43 75 99 75 162 0 41 2 45 33 55
17 5 125 39 240 76 236 74 966 295 976 295 4 0 13 -16 20 -35 23 -65 118 -125
197 -125 16 0 48 9 70 19 l42 19 144 -151 c142 -150 5485 -5883 5771 -6192 91
-99 146 -166 143 -175 -3 -8 -12 -35 -21 -60 -44 -120 48 -257 180 -268 45 -4
64 0 110 23 77 37 108 86 113 174 3 59 0 72 -27 118 -40 67 -116 108 -189 100
-26 -2 -55 -8 -64 -12 -14 -6 -30 19 -91 142 -84 166 -3175 6720 -3299 6993
-62 135 -77 178 -69 190 52 73 67 138 46 206 l-15 49 98 96 c90 89 4692 4371
4935 4592 59 54 111 97 115 95 94 -50 176 -50 244 -2 63 44 90 103 86 185 -5
100 -60 167 -157 191 -23 6 -41 16 -41 22 0 6 -5 67 -10 136 -13 164 -1147
22434 -1156 22696 -7 201 -7 202 15 209 32 10 79 53 98 89 62 118 6 260 -118
301 -27 9 -50 24 -53 33 -3 9 -19 89 -36 177 -40 206 -2648 15049 -2688 15295
l-30 184 40 35 c49 42 78 101 78 161 0 51 -27 116 -59 144 -11 11 -21 25 -21
31 0 22 96 242 2237 5125 2315 5277 2312 5271 2327 5275 132 35 206 114 206
216 0 87 -70 178 -153 201 -25 6 -49 19 -53 27 -3 9 -28 79 -56 156 -70 198
-3444 10207 -3541 10507 l-81 246 34 28 c95 80 93 238 -3 320 l-34 29 75 145
c104 200 4586 8453 4681 8618 l76 134 72 1 c62 2 77 6 114 32 106 75 121 231
31 321 -38 37 -77 55 -136 61 -42 4 -61 0 -105 -23z m-366 -244 c-154 -40
-26615 -6309 -26857 -6363 l-197 -44 -25 37 c-15 22 -44 47 -71 60 -96 46
-232 9 -272 -75 -21 -43 -16 -43 -303 -10 -300 34 -8357 1037 -8675 1080 -143
19 -339 44 -435 55 -96 11 -233 27 -305 36 -209 24 -5159 642 -5285 659 -63 9
-137 19 -165 22 -27 3 -56 9 -63 12 -7 4 110 22 260 39 193 23 40526 4321
42238 4501 260 28 290 26 155 -9z m274 -39 c11 -21 36 -51 55 -67 l36 -29
-129 -240 c-199 -372 -4394 -8096 -4559 -8393 l-146 -264 -42 7 c-50 7 -112
-7 -145 -34 -30 -24 458 -327 -3529 2191 -1328 838 -2485 1570 -2570 1624
l-155 100 -6 50 c-14 114 -98 193 -207 194 -78 0 -165 -54 -192 -121 -13 -31
-14 -31 -160 -54 -116 -18 -11805 -1696 -11979 -1720 -67 -9 -125 -15 -127
-13 -2 2 54 21 124 41 500 147 23647 6753 23709 6766 2 1 11 -16 22 -38z
m-779 -131 c-35 -13 -22756 -6497 -22963 -6554 -92 -25 -174 -46 -181 -46 -8
0 -25 14 -37 31 -27 39 -111 79 -165 79 -62 0 -141 -44 -173 -96 -23 -38 -30
-43 -62 -44 -57 0 -363 32 -1514 160 -1272 142 -1427 161 -1432 176 -2 7 97
36 269 79 420 103 26251 6223 26268 6223 8 0 4 -4 -10 -8z m-41965 -4455 c151
-24 4798 -827 5150 -891 177 -32 345 -64 366 -70 11 -3 18 -18 21 -45 l4 -40
-256 -143 c-371 -209 -4580 -2530 -4742 -2615 l-137 -72 -41 30 c-22 16 -58
32 -79 36 -44 7 -39 -8 -90 275 -48 265 -509 2995 -545 3225 l-32 210 25 9
c40 13 91 55 113 93 17 28 25 33 47 29 14 -3 103 -17 196 -31z m-605 6 c0 -5
-75 -72 -167 -149 -212 -175 -3446 -2809 -3725 -3033 l-208 -166 -56 28 c-35
18 -73 29 -98 29 -56 0 -138 -42 -167 -85 -13 -19 -29 -35 -36 -35 -29 0
-2416 592 -2729 677 l-62 17 -6 50 c-3 28 -2 53 2 57 4 3 99 40 212 82 317
117 6992 2523 7038 2536 1 1 2 -3 2 -8z m-260 -37 c-122 -47 -6694 -2416
-6862 -2474 l-167 -57 -23 25 c-90 97 -267 74 -329 -42 -24 -45 -25 -46 -74
-46 -77 0 -347 22 -1580 130 -1368 120 -1565 140 -1565 155 0 6 78 30 183 54
100 23 2461 539 5247 1146 2786 607 5094 1110 5130 1118 98 22 112 19 40 -9z
m-255 6 c-19 -9 -9867 -2156 -10192 -2222 l-163 -33 -31 38 c-84 102 -240 105
-324 5 -15 -18 -32 -46 -38 -62 l-10 -29 -316 6 c-570 12 -3664 98 -3766 105
l-100 7 210 34 c189 30 14716 2158 14740 2159 6 0 1 -3 -10 -8z m572 -31 c8
-8 -9 -59 -59 -182 -93 -228 -1728 -4091 -1810 -4277 l-64 -145 -44 -7 c-25
-4 -58 -17 -73 -29 l-29 -21 -52 28 c-193 103 -1561 878 -1815 1028 l-156 92
3 46 c1 25 -5 67 -14 93 -14 41 -14 50 -2 59 7 6 79 65 158 132 170 141 3580
2918 3785 3082 77 61 145 112 151 112 5 0 15 -5 21 -11z m3480 -284 c1302
-162 2448 -306 2546 -320 98 -13 335 -43 525 -65 191 -22 2009 -248 4041 -500
2031 -253 3698 -460 3704 -460 6 0 8 -2 5 -5 -5 -5 -7150 654 -7543 695 -267
29 -250 24 -270 75 -29 76 -114 135 -195 135 -67 0 -154 -52 -186 -112 -9 -17
-23 -16 -224 16 -208 34 -4760 822 -4790 830 -12 3 -12 4 2 5 9 0 1082 -132
2385 -294z m-3369 231 c14 -17 52 -236 317 -1798 206 -1220 272 -1619 311
-1868 5 -34 3 -37 -35 -53 -65 -29 -121 -113 -121 -183 0 -16 -23 -26 -123
-57 -208 -64 -1892 -562 -2069 -611 l-168 -47 -37 26 c-21 14 -43 25 -50 25
-7 0 -13 5 -13 10 0 6 36 97 79 203 109 266 1596 3781 1738 4108 108 251 116
266 139 261 13 -2 27 -9 32 -16z m31572 -363 c0 -12 -244 -126 -2971 -1396
-1389 -648 -2537 -1177 -2551 -1177 -22 0 -6003 719 -6532 785 -110 14 -206
25 -214 25 -36 0 3 13 75 26 55 9 11269 1621 12053 1732 84 12 140 14 140 5z
m16 -85 c3 -13 15 -35 26 -50 l19 -28 -104 -182 c-173 -304 -1559 -2672 -1572
-2687 -11 -11 -316 23 -1909 215 -1042 126 -1892 232 -1888 236 16 16 5395
2518 5414 2518 4 0 10 -10 14 -22z m566 -96 c231 -143 5801 -3661 5932 -3746
106 -69 117 -79 104 -92 -13 -13 -30 -14 -119 -4 -410 44 -4574 551 -4579 557
-9 10 -1347 2849 -1465 3108 l-91 199 25 38 c14 21 31 36 37 34 7 -3 77 -45
156 -94z m-388 -442 c-25 -1488 -50 -2619 -57 -2626 -6 -7 -1562 174 -1677
195 l-36 6 688 1175 c378 646 755 1288 838 1427 l149 251 51 -16 51 -16 -7
-396z m216 258 c286 -598 1459 -3092 1455 -3096 -5 -5 -1265 145 -1272 152 -5
5 -265 2564 -288 2830 -8 99 -18 202 -21 228 -5 47 -4 49 37 57 3 0 43 -77 89
-171z m-141 -178 c46 -413 281 -2754 276 -2758 -5 -5 -354 34 -361 40 -4 4 42
2376 52 2696 4 117 8 211 10 210 1 -2 12 -86 23 -188z m-25183 -55 c322 -46
7751 -1206 7979 -1245 99 -17 183 -36 187 -43 4 -7 8 -20 8 -30 0 -10 9 -35
20 -56 l19 -39 -92 -88 c-774 -741 -5020 -4795 -5096 -4865 l-104 -97 -45 20
c-36 16 -58 19 -107 15 l-62 -6 -186 377 c-278 565 -2600 5345 -2753 5667
l-133 280 34 35 c19 19 41 52 50 73 8 20 21 37 29 37 7 0 121 -16 252 -35z
m4204 -355 c2137 -198 3928 -364 3980 -370 98 -10 594 -60 603 -60 2 0 7 -17
10 -37 3 -21 9 -47 12 -59 5 -17 -13 -37 -117 -119 -68 -54 -131 -105 -141
-113 -15 -14 -22 -12 -69 13 -109 59 -233 22 -289 -87 -11 -21 -26 -38 -34
-38 -48 0 -7886 1220 -7897 1230 -5 3 7 4 25 3 17 -2 1780 -165 3917 -363z
m-4834 291 c45 -50 107 -75 172 -69 l48 5 61 -122 c88 -175 2840 -5838 2934
-6038 44 -92 79 -171 79 -175 0 -4 -14 -21 -30 -39 l-29 -32 -203 83 c-257
106 -7541 3197 -7900 3353 l-268 116 0 38 c0 21 -5 50 -10 65 -8 21 -8 30 2
36 106 67 5088 2817 5106 2818 1 0 18 -18 38 -39z m10110 -791 c282 -28 2324
-256 2534 -283 159 -20 175 -24 178 -42 4 -26 111 10 -1623 -539 -1461 -464
-1694 -536 -1717 -536 -7 1 -22 15 -33 33 -18 29 -69 70 -98 80 -14 4 31 216
164 759 l90 366 49 7 c75 10 136 54 166 120 30 66 9 63 290 35z m-614 -425
c-36 -154 -97 -408 -136 -565 -70 -282 -71 -285 -98 -288 -24 -3 -28 1 -37 35
-21 79 -100 412 -122 513 -21 99 -21 105 -4 115 96 56 136 148 110 249 -7 28
-13 52 -12 53 1 0 64 51 140 111 l138 111 42 -27 43 -26 -64 -281z m-29132 40
c916 -24 1768 -49 1894 -55 126 -5 237 -10 247 -10 13 0 22 -15 33 -54 20 -69
81 -127 150 -145 26 -6 57 -9 67 -6 17 6 30 -14 95 -150 91 -192 782 -1709
909 -2000 l93 -210 -31 -35 c-17 -19 -33 -34 -36 -33 -64 19 -5434 2649 -5469
2678 -1 1 1 16 4 33 l7 32 186 0 c102 0 935 -20 1851 -45z m36315 -360 c1804
-217 3287 -397 3295 -398 8 -2 -14 -17 -50 -34 -36 -17 -1550 -722 -3365
-1568 -1815 -846 -3402 -1584 -3527 -1641 l-228 -103 -51 50 -52 50 12 167
c14 204 274 3160 301 3432 28 272 24 258 65 266 72 13 155 102 155 165 0 21 2
22 83 15 45 -4 1558 -184 3362 -401z m-3821 304 c19 -28 44 -48 82 -66 45 -20
53 -28 50 -46 -3 -12 -7 -69 -11 -127 -3 -58 -8 -132 -11 -165 -67 -788 -280
-3181 -294 -3320 -11 -104 -20 -196 -20 -202 0 -8 -14 -13 -37 -13 -21 -1 -55
-7 -76 -15 -38 -13 -39 -13 -80 23 -187 164 -2662 2409 -2842 2577 -66 62
-133 123 -149 137 l-29 25 23 48 c13 26 24 67 24 90 l1 42 95 32 c133 44 2858
908 3060 970 91 27 170 50 176 51 6 0 24 -18 38 -41z m-34450 -66 c104 -48
4575 -2233 4931 -2410 399 -198 445 -223 440 -235 -4 -10 -42 -12 -158 -10
-203 4 -6580 269 -6772 282 -82 5 -157 10 -165 10 -9 0 -22 15 -28 34 -12 32
-55 77 -96 101 -16 9 -6 29 87 180 127 207 1076 1704 1213 1912 l98 150 54
-28 c88 -47 189 -33 251 35 14 14 29 26 35 26 5 0 55 -21 110 -47z m4740 16
c478 -35 2908 -252 2961 -264 15 -3 23 -17 31 -52 l12 -48 -73 -80 c-40 -44
-459 -487 -931 -984 -473 -497 -898 -945 -945 -995 l-86 -91 -39 18 c-45 20
-90 25 -149 14 l-40 -7 -69 147 c-118 255 -824 1809 -912 2007 l-83 190 28 17
c35 21 67 62 83 105 14 40 6 39 212 23z m25845 -141 l39 -1 50 -206 c28 -113
63 -262 78 -330 l27 -124 -37 -30 c-58 -46 -79 -97 -74 -176 3 -36 7 -72 9
-80 2 -8 -57 -59 -151 -131 -124 -94 -4998 -3659 -5160 -3775 -74 -53 -78 -50
-15 11 181 176 4936 4715 5019 4791 l99 92 38 -20 c21 -10 56 -20 78 -21z
m-22184 -264 c290 -69 1997 -496 2283 -571 l252 -67 0 -33 0 -32 -157 -50
c-174 -55 -4583 -1343 -4838 -1414 l-160 -44 -18 34 -18 34 32 37 c69 81 1936
2050 1978 2086 21 19 21 19 44 -2 28 -26 98 -52 141 -52 67 0 163 64 181 120
6 20 -17 24 280 -46z m-9297 -216 c-9 -13 -192 -302 -408 -643 -216 -341 -442
-694 -501 -785 l-108 -166 -68 -16 c-37 -8 -69 -15 -70 -14 -5 4 1156 1646
1164 1646 3 0 -1 -10 -9 -22z m44487 -274 c1040 -125 1893 -230 1898 -234 6
-5 -3743 -6423 -3974 -6802 -87 -142 -91 -147 -115 -138 -45 17 -118 11 -167
-13 l-46 -24 -213 122 c-309 177 -6050 3521 -6328 3687 l-235 139 0 57 0 56
145 70 c524 254 7090 3305 7115 3306 17 0 881 -102 1920 -226z m2849 -344
c456 -55 832 -102 835 -105 5 -5 -198 -10432 -206 -10562 -4 -67 -6 -73 -26
-73 -12 0 -39 -9 -60 -20 l-37 -20 -208 138 c-422 282 -5062 3455 -5178 3541
-18 13 -23 29 -26 83 -3 55 -9 75 -34 111 l-31 43 120 210 c114 199 3806 6510
3908 6681 48 79 51 81 82 77 17 -3 405 -50 861 -104z m-15666 53 c2 0 -17 -79
-41 -175 -55 -209 -963 -3507 -1009 -3662 l-33 -109 -55 -12 c-30 -6 -65 -16
-76 -23 -33 -17 -81 -77 -95 -116 -9 -24 -20 -36 -34 -37 -109 -7 -3426 32
-3961 47 l-240 7 -17 45 c-9 26 -15 47 -14 48 1 0 74 55 162 121 130 97 4725
3459 5055 3698 52 38 142 102 199 142 l104 73 26 -22 c14 -13 27 -24 29 -25z
m-19805 -12 c32 -49 113 -91 174 -91 54 0 99 18 146 60 l37 32 168 -92 c457
-254 1758 -996 1823 -1042 21 -14 22 -18 9 -31 -20 -20 -130 -25 -3855 -173
-3001 -119 -3686 -143 -3675 -131 3 3 79 28 170 55 230 71 4586 1343 4800
1402 96 27 176 49 176 49 1 1 13 -16 27 -38z m20192 -122 c229 -203 2619
-2372 2763 -2507 120 -113 131 -126 118 -141 -25 -27 -46 -88 -46 -131 0 -22
-2 -40 -4 -40 -3 0 -89 -24 -193 -54 -260 -75 -3517 -967 -3733 -1022 -96 -25
-182 -47 -191 -50 -11 -3 -24 7 -37 31 -18 29 -63 67 -94 77 -7 3 10 74 78
328 47 174 895 3253 925 3360 17 58 41 141 55 185 l24 80 52 1 c29 0 67 8 83
16 24 13 33 14 45 4 8 -7 78 -68 155 -137z m16360 -49 c87 -11 162 -23 165
-28 5 -6 1061 -10402 1105 -10886 20 -211 20 -201 -15 -216 -17 -7 -43 -28
-59 -46 l-30 -33 -198 53 c-313 85 -980 277 -1170 337 -26 8 -33 16 -33 35 0
60 -65 140 -135 165 l-35 13 0 151 c0 82 45 2465 100 5295 55 2830 100 5153
100 5163 0 22 7 22 205 -3z m874 -106 c344 -41 627 -77 629 -79 6 -6 2170
-4591 2264 -4798 l91 -198 -31 -32 c-44 -47 -62 -90 -62 -149 0 -64 26 -125
68 -160 l31 -26 -83 -193 c-97 -224 -2242 -5025 -2337 -5231 -56 -120 -67
-136 -84 -131 -11 3 -21 6 -22 7 -8 7 -116 1051 -588 5716 -294 2907 -537
5300 -539 5318 -4 27 -2 32 16 32 11 0 302 -34 647 -76z m2893 -348 c1206
-146 2250 -272 2319 -282 l126 -17 -9 -37 c-14 -56 3 -108 63 -191 16 -21 16
-21 -1118 -2144 -1151 -2153 -1092 -2046 -1118 -2038 -11 4 -44 6 -73 6 l-53
-1 -71 141 c-57 115 -2258 4772 -2275 4815 -3 6 0 12 6 12 6 0 997 -119 2203
-264z m-35228 125 c23 -43 82 -90 130 -103 l44 -11 5 -106 c12 -225 297
-11013 295 -11136 l-3 -130 -43 145 c-65 219 -2817 10050 -2864 10229 -22 85
-36 157 -32 158 33 11 77 49 101 84 24 36 28 53 28 108 0 36 -3 76 -8 87 -7
19 -3 23 30 32 21 5 103 30 183 55 134 42 1739 517 1980 585 58 17 113 31 122
31 10 1 24 -12 32 -28z m4516 -1734 c2131 -905 3955 -1680 4053 -1723 l179
-79 2 -55 c1 -30 9 -69 17 -87 l17 -31 -112 -109 c-111 -110 -7456 -7180
-7810 -7518 -103 -99 -193 -183 -200 -187 -8 -5 -109 15 -132 26 -11 5 -304
10833 -304 11225 l0 160 43 19 c39 17 107 82 107 101 0 5 60 -15 133 -44 72
-29 1876 -793 4007 -1698z m-22726 1028 c-3 -13 -1 -47 6 -75 l12 -50 -98
-132 c-167 -224 -1585 -2082 -1602 -2098 -22 -22 -35 -41 755 1075 709 1001
925 1304 931 1305 1 0 0 -11 -4 -25z m56187 -75 c57 -157 3559 -10547 3612
-10716 l35 -112 -32 -6 c-28 -6 -36 -1 -86 53 -392 422 -5701 6155 -5769 6231
-52 58 -106 117 -119 131 -22 25 -23 29 -9 50 49 77 41 183 -20 250 l-35 38
83 158 c235 450 2092 3921 2134 3988 11 17 23 20 94 20 l81 0 31 -85z m-52256
-90 c3909 -162 3589 -146 3601 -183 3 -12 17 -36 29 -53 l23 -31 -127 -184
c-303 -439 -4418 -6258 -4466 -6317 -1 -1 -19 5 -41 14 -28 12 -56 15 -99 11
l-60 -6 -63 162 c-87 222 -2286 6052 -2378 6304 -41 111 -74 206 -74 211 0 5
13 15 29 22 57 23 111 104 111 166 l0 26 198 -7 c108 -3 1601 -64 3317 -135z
m11525 108 c0 -82 78 -178 157 -194 24 -5 33 -13 38 -33 17 -77 115 -744 776
-5266 676 -4624 779 -5339 779 -5386 0 -12 -14 -26 -38 -38 l-38 -20 -110 122
c-142 158 -8828 10044 -8999 10242 -71 83 -135 158 -143 167 -13 15 -12 21 10
46 13 16 30 43 37 60 7 17 21 33 30 36 9 3 126 10 261 17 470 22 6866 274
7053 278 l187 3 0 -34z m-15287 -177 c26 -5 50 -10 52 -12 13 -14 2341 -6173
2475 -6551 l53 -147 -31 -35 -30 -35 -189 128 c-366 248 -4736 3284 -4766
3311 -5 4 2 27 14 51 41 79 27 180 -33 246 -13 13 -17 27 -12 35 32 52 1972
2598 2232 2930 l116 146 36 -29 c20 -16 56 -33 83 -38z m15620 -386 c156 -547
2779 -9924 2814 -10056 l37 -146 -41 -47 c-27 -31 -45 -63 -50 -89 l-9 -42
-258 -37 c-253 -36 -748 -98 -786 -98 -13 0 -20 7 -20 20 0 34 -37 97 -72 123
-37 27 -89 47 -124 47 -13 0 -24 4 -24 8 0 5 -16 107 -35 228 -65 412 -1505
10283 -1505 10316 0 26 11 -8 73 -227z m-8134 145 c10 -5 38 -10 62 -12 l43
-3 64 -140 c94 -205 3078 -6973 3152 -7149 60 -142 62 -150 44 -160 -10 -6
-38 -29 -61 -52 -34 -33 -48 -40 -75 -37 -18 1 -107 10 -198 18 -218 21 -7230
799 -7430 825 -85 11 -160 20 -166 20 -6 0 -9 13 -6 30 6 44 -6 94 -32 133
l-24 35 106 154 c143 207 4213 5969 4366 6181 66 92 125 167 129 167 5 0 16
-4 26 -10z m282 -127 c129 -144 8884 -10108 9052 -10303 59 -69 107 -127 107
-130 0 -3 -4 -11 -9 -19 -11 -17 -43 0 -3071 1534 -2664 1350 -2694 1366
-2698 1391 -11 61 -26 98 -55 131 -36 41 -97 72 -142 73 -29 0 -32 6 -104 163
-104 231 -3052 6915 -3118 7072 -30 72 -63 149 -73 173 -11 23 -16 42 -11 42
4 0 59 -57 122 -127z m28232 -1189 c9 -9 -10 -22 -273 -191 -380 -243 -2696
-1704 -2801 -1767 l-97 -57 -37 26 c-80 53 -170 57 -240 10 l-35 -25 -355 355
-355 355 21 39 c11 22 24 61 27 87 l7 47 150 44 c170 50 3526 970 3783 1038
173 45 194 49 205 39z m612 -144 c257 -147 6200 -3610 6378 -3716 110 -67 146
-93 141 -104 -28 -64 -35 -100 -27 -141 l9 -44 -151 -94 c-168 -105 -8778
-5268 -8922 -5350 -51 -29 -96 -51 -100 -49 -33 14 -83 56 -83 70 0 9 25 119
54 245 69 288 2225 8961 2263 9102 l28 103 52 20 c31 11 65 34 85 56 l33 38
30 -17 c17 -9 111 -63 210 -119z m-465 16 c0 -6 -29 -132 -64 -281 -68 -284
-2192 -8830 -2248 -9043 -45 -171 -55 -166 -90 48 -38 224 -971 6494 -1012
6795 l-32 240 40 18 c109 48 156 154 121 272 -5 17 19 36 157 126 220 143
2596 1644 2826 1785 l183 112 60 -31 c32 -17 59 -35 59 -41z m-38010 -460 c0
-2 -8 -10 -17 -17 -16 -13 -17 -12 -4 4 13 16 21 21 21 13z m31255 -556 c776
-10 1551 -22 1724 -26 301 -7 314 -8 319 -27 17 -65 53 -109 128 -153 18 -10
17 -16 -4 -180 -30 -224 -355 -2375 -390 -2579 l-27 -160 -48 -12 c-27 -6 -63
-21 -82 -32 l-33 -19 -159 127 c-219 175 -3136 2561 -3415 2794 -126 104 -228
192 -228 195 0 4 7 26 16 49 l17 43 386 0 c212 0 1021 -9 1796 -20z m-2497
-130 c22 -11 59 -24 83 -28 l44 -7 47 -140 c57 -171 1685 -5357 1773 -5649
l63 -210 -43 -27 c-46 -29 -95 -112 -95 -160 0 -20 -6 -28 -22 -32 -147 -35
-9883 -1617 -9948 -1617 -8 0 -26 16 -38 36 l-24 36 34 35 c129 133 789 770
4128 3984 3451 3321 3949 3799 3957 3799 1 0 20 -9 41 -20z m366 -77 c197
-158 3347 -2736 3511 -2872 82 -70 155 -131 162 -136 12 -9 11 -17 -2 -47 -29
-72 -13 -172 36 -225 l21 -21 -43 -64 c-102 -151 -1577 -2235 -1755 -2480 -88
-121 -101 -135 -118 -126 -11 6 -42 13 -69 17 l-50 6 -24 70 c-34 98 -1732
5509 -1799 5730 -29 100 -54 188 -54 196 0 11 39 43 59 48 2 1 58 -43 125 -96z
m5211 -726 c-25 -59 -19 -123 15 -184 l30 -53 -118 -188 c-150 -236 -965
-1492 -1083 -1668 -70 -106 -92 -131 -107 -127 -13 3 -18 12 -15 26 2 12 14
105 28 207 22 172 320 2150 365 2430 11 69 26 158 32 198 11 71 12 72 42 72
17 0 49 9 71 19 l40 19 358 -357 358 -357 -16 -37z m-34787 151 c159 -106
4416 -3060 4650 -3227 l162 -116 0 -49 c0 -126 118 -232 238 -212 31 5 40 2
55 -17 24 -29 5191 -6918 5200 -6934 6 -9 -182 -422 -203 -446 -4 -5 -2275
2448 -5046 5450 -5417 5868 -5226 5661 -5204 5648 8 -5 75 -49 148 -97z
m34924 -430 c44 -13 39 2 73 -206 31 -185 976 -6534 1010 -6787 28 -200 29
-225 15 -225 -5 0 -562 1104 -1237 2454 l-1227 2454 35 39 c67 74 72 192 12
263 l-24 29 77 123 c104 167 971 1503 1106 1706 59 89 111 162 114 162 4 0 24
-5 46 -12z m21119 -490 c150 -160 5585 -6031 5714 -6173 127 -140 120 -130 95
-155 -12 -12 -31 -42 -42 -67 l-20 -45 -46 6 c-26 3 -78 8 -117 11 -160 12
-465 42 -4100 400 -2090 206 -3876 384 -3970 395 -93 11 -173 20 -177 20 -3 0
-10 14 -13 32 -5 20 -28 52 -62 85 l-54 53 69 163 c73 169 2228 4994 2302
5152 23 50 55 120 72 157 l31 67 57 -1 c33 0 69 6 86 15 16 8 34 15 39 16 6 1
67 -59 136 -131z m-10076 -1431 c186 -125 4900 -3346 5078 -3470 87 -61 155
-115 153 -121 -29 -66 -37 -120 -26 -166 13 -56 65 -121 110 -140 16 -7 30
-15 30 -19 0 -37 -1160 -6175 -1261 -6675 -42 -204 -43 -206 -68 -206 -24 0
-31 12 -89 158 -83 206 -4025 10388 -4087 10555 l-47 127 24 29 c28 34 18 38
183 -72z m-452 29 c23 -14 58 -28 79 -31 28 -5 37 -12 42 -33 4 -21 77 -6762
120 -11199 3 -298 3 -556 0 -572 -6 -28 -10 -31 -43 -31 -20 0 -55 -11 -79
-25 -51 -29 -29 -38 -242 95 -199 124 -7654 4913 -7861 5050 l-156 103 0 61
c0 44 -6 73 -22 105 -13 24 -19 46 -14 50 5 3 79 63 164 132 386 315 7956
6319 7967 6319 2 0 22 -11 45 -24z m-183 -20 c0 -6 -29 -29 -3950 -3141 -3784
-3004 -4076 -3235 -4090 -3235 -4 0 -24 7 -43 15 -46 19 -118 19 -164 0 l-36
-15 -46 42 c-104 94 -630 591 -684 645 l-58 59 17 39 c11 26 15 60 12 103 l-3
65 85 54 c118 75 8949 5371 8958 5373 1 0 2 -2 2 -4z m478 -223 c125 -315
3956 -10211 4033 -10417 34 -92 60 -168 58 -169 -2 -1 -22 -12 -44 -23 -53
-28 -96 -90 -102 -146 l-5 -45 -252 -66 c-323 -86 -3144 -801 -3381 -857 -173
-42 -179 -42 -190 -24 -14 27 -87 100 -105 106 -12 4 -16 58 -23 349 -10 452
-120 11310 -115 11414 4 79 11 105 27 105 5 0 49 -102 99 -227z m-12366 -205
c21 1 47 4 58 7 17 5 156 -267 1247 -2449 l1228 -2456 -35 -35 -35 -34 -265
123 c-383 178 -3632 1717 -3910 1852 l-235 115 3 49 c3 36 -3 63 -23 108 l-27
60 103 149 c160 230 1621 2292 1711 2415 78 105 82 109 111 102 17 -3 48 -6
69 -6z m-27940 -753 c343 -35 7245 -802 7403 -823 l130 -17 6 -60 c7 -72 26
-111 74 -154 27 -23 35 -37 30 -51 -15 -46 -2808 -5889 -2815 -5889 -5 0
-4722 6294 -5036 6720 l-162 218 37 40 c24 26 45 40 63 40 14 1 136 -10 270
-24z m10873 -2433 c1309 -663 2481 -1258 2605 -1323 l225 -117 6 -61 c8 -82
41 -131 114 -166 55 -27 105 -30 171 -10 18 5 52 -28 220 -217 426 -476 5095
-5772 5134 -5823 20 -26 360 -299 -5670 4569 -4944 3991 -5637 4552 -5680
4593 -22 22 253 -117 2875 -1445z m-2791 1316 c454 -359 11316 -9136 11316
-9143 0 -2 -7 -22 -16 -46 -10 -29 -13 -60 -10 -89 l6 -45 -177 -89 c-273
-136 -3493 -1706 -3618 -1764 -108 -50 -110 -50 -135 -32 -57 41 -150 48 -210
15 -25 -13 -25 -13 -161 193 -175 266 -6907 10701 -7051 10929 -59 95 -108
175 -108 178 0 17 38 -7 164 -107z m-107 -73 c114 -171 6947 -10764 7082
-10977 61 -98 111 -182 111 -187 0 -6 -9 -25 -20 -43 -11 -18 -20 -41 -20 -50
0 -9 -4 -19 -8 -22 -5 -3 -87 -21 -183 -41 -257 -53 -13409 -2569 -13643
-2610 -155 -27 -202 -32 -208 -22 -4 6 -6 16 -5 21 2 6 68 51 148 101 204 129
6009 3718 6208 3837 l164 99 26 -25 c103 -99 279 -59 335 76 46 110 -21 245
-137 277 l-47 14 0 4819 0 4818 28 10 c15 6 38 17 52 24 14 8 28 12 31 8 4 -4
42 -61 86 -127z m-227 78 c8 -7 12 -9328 5 -9490 l-7 -142 -42 -14 -41 -14
-64 81 c-36 45 -669 888 -1409 1875 l-1344 1794 15 31 c8 17 611 1278 1340
2801 729 1524 1360 2843 1404 2933 l78 162 30 -6 c16 -3 32 -8 35 -11z m17856
-1045 c8 -18 31 -47 51 -64 l35 -30 -68 -150 c-93 -206 -974 -2084 -1091
-2325 l-95 -197 -59 5 c-103 10 -187 -41 -220 -131 -7 -20 -18 -36 -24 -36
-50 0 -7938 1209 -8344 1279 -181 31 -223 49 -153 64 160 34 9855 1611 9934
1616 10 1 24 -12 34 -31z m585 -112 c210 -96 3695 -1747 4010 -1899 l176 -85
-1 -64 -1 -64 -125 -48 c-200 -77 -1051 -388 -1218 -446 l-153 -53 -15 22
c-31 44 -70 72 -122 87 -55 16 -95 13 -146 -13 l-29 -15 -89 89 c-143 141
-2442 2494 -2483 2541 -24 27 -32 42 -22 42 8 0 106 -42 218 -94z m811 -1044
c579 -591 1159 -1185 1290 -1319 l236 -244 -24 -42 c-13 -23 -24 -51 -24 -63
0 -20 -7 -21 -122 -27 -147 -8 -3051 -94 -3489 -103 l-306 -7 -6 41 c-4 23
-22 60 -41 85 l-34 45 88 193 c93 206 953 2040 1088 2319 l79 166 54 0 c34 1
70 9 94 21 22 12 45 19 52 16 6 -3 486 -489 1065 -1081z m19808 523 c256 -74
507 -146 557 -162 l93 -28 0 -58 c0 -59 16 -104 50 -142 18 -20 15 -28 -129
-345 -193 -423 -2630 -5686 -2729 -5894 -42 -87 -78 -154 -80 -148 -2 6 9 77
23 159 42 239 1181 6242 1225 6456 22 108 40 198 40 200 0 1 16 4 36 5 72 5
144 59 173 130 l13 30 131 -35 c73 -19 341 -95 597 -168z m1315 -286 c218 -19
7718 -758 7910 -779 274 -31 249 -23 264 -78 14 -55 82 -126 130 -137 36 -8
38 -17 12 -76 -10 -24 -44 -103 -74 -175 -78 -185 -4250 -9696 -4359 -9939
-50 -110 -93 -203 -97 -207 -3 -4 -26 -1 -51 6 l-45 13 -59 154 c-81 214
-3841 10594 -3932 10856 -68 198 -72 212 -54 218 29 9 88 83 96 119 10 47 12
48 73 42 31 -3 115 -11 186 -17z m-467 -171 l48 0 91 -246 c135 -361 3802
-10489 3889 -10740 41 -117 74 -216 74 -220 0 -4 -19 -15 -41 -24 -49 -21 -34
-27 -224 95 -192 124 -5821 3827 -6382 4199 l-451 300 5 33 c7 43 -20 121 -53
156 l-25 26 84 189 c80 180 2645 5722 2760 5964 145 307 136 291 158 280 11
-6 41 -11 67 -12z m-32457 -599 c34 -85 105 -129 203 -129 l64 0 119 -182
c109 -167 3621 -5669 3723 -5833 71 -115 75 -123 34 -79 -40 42 -4896 5543
-5084 5759 -58 66 -127 146 -153 177 l-48 56 31 48 c16 26 30 55 30 64 0 15
45 23 303 59 364 51 667 88 723 90 38 1 43 -2 55 -30z m590 -5 c255 -35 7933
-1216 8151 -1254 97 -16 181 -30 187 -30 6 0 14 -12 17 -27 4 -16 18 -49 32
-75 l26 -46 -89 -99 c-231 -256 -3377 -3697 -3503 -3830 l-144 -153 -31 17
c-54 28 -146 17 -217 -24 -3 -2 -49 45 -101 104 -121 137 -4320 5027 -4454
5188 -140 168 -130 152 -113 173 9 9 23 32 32 50 9 17 18 32 20 32 1 0 85 -11
187 -26z m1989 -2760 c2495 -2904 2401 -2794 2393 -2814 -38 -96 -39 -144 -4
-213 l18 -35 -158 -174 c-86 -95 -195 -213 -241 -262 l-83 -88 -39 16 c-43 18
-112 21 -151 6 -25 -10 -29 -6 -139 163 -155 236 -3664 5736 -3743 5867 -36
58 -52 91 -36 73 15 -17 998 -1160 2183 -2539z m12697 2099 c59 -35 140 -37
200 -5 23 12 45 22 48 22 11 0 469 -425 687 -638 l97 -95 -17 -29 c-13 -22
-23 -28 -52 -28 -99 0 -2373 241 -2507 266 -26 5 -51 29 -41 40 11 10 890 336
1283 474 l220 78 19 -29 c10 -16 39 -41 63 -56z m-33790 -875 c440 -222 2234
-1127 3987 -2013 2806 -1417 3187 -1612 3183 -1630 -4 -15 -1470 -3083 -2795
-5847 -73 -153 -76 -157 -101 -150 -14 4 -49 7 -78 6 l-51 -1 -90 171 c-114
218 -4700 9280 -4839 9562 l-103 211 35 37 c19 21 35 42 35 47 0 5 4 9 8 9 5
0 369 -181 809 -402z m31807 287 c11 -26 34 -59 59 -80 l41 -35 -68 -168 c-89
-219 -1137 -2707 -1214 -2881 l-59 -135 -55 3 c-32 1 -70 -4 -90 -12 l-35 -15
-90 107 c-171 202 -2333 2848 -2451 2998 l-32 41 24 37 c14 20 28 45 31 54 5
15 22 19 113 24 290 17 3225 104 3563 106 l246 1 17 -45z m601 15 c147 -12 44
-2 1110 -115 490 -52 964 -104 1055 -115 91 -11 172 -20 181 -20 13 0 18 -13
21 -59 6 -85 34 -122 137 -181 12 -7 12 -34 2 -181 -14 -196 -93 -1097 -116
-1325 -24 -236 -18 -218 -78 -236 -29 -9 -57 -13 -64 -10 -27 16 -2264 1997
-2396 2123 -78 74 -78 74 -67 107 11 31 14 32 54 27 22 -2 95 -9 161 -15z
m-33274 -141 c111 -211 4918 -9713 4940 -9766 l22 -51 -33 -33 c-93 -93 -82
-244 22 -319 23 -17 59 -33 80 -36 26 -5 38 -12 38 -23 0 -9 5 -75 10 -147 17
-225 700 -13857 699 -13955 l-1 -94 -34 131 c-95 371 -5824 24392 -5824 24422
0 17 27 -27 81 -129z m2819 -12219 c1563 -6548 2864 -12004 2891 -12125 47
-204 49 -221 33 -230 -10 -5 -34 -24 -54 -42 l-37 -32 -219 49 c-380 84 -4411
1046 -4656 1111 -31 8 -38 14 -38 35 0 60 -69 146 -136 169 -26 9 -40 21 -45
37 -12 45 -31 663 -359 11803 -287 9736 -336 11458 -330 11535 1 8 26 -79 55
-195 30 -115 1332 -5567 2895 -12115z m30278 12203 c235 -204 2155 -1906 2285
-2026 103 -95 107 -101 91 -118 -9 -11 -25 -43 -35 -71 l-18 -53 -133 -38
c-186 -52 -3379 -898 -3566 -944 -148 -36 -154 -37 -164 -19 -6 10 -26 36 -45
56 l-34 38 52 129 c76 189 1074 2559 1191 2831 l101 232 51 0 c36 0 63 8 91
24 22 13 43 25 48 25 4 1 42 -29 85 -66z m-4563 -92 c17 0 47 6 67 13 l38 14
97 -117 c166 -197 2354 -2873 2416 -2953 l58 -76 -26 -47 c-14 -27 -25 -63
-25 -81 0 -19 -4 -34 -10 -34 -5 0 -114 -16 -242 -35 -298 -45 -5615 -776
-5888 -810 -113 -14 -221 -27 -241 -30 -35 -5 -37 -3 -62 46 l-25 51 36 42
c136 154 3403 3728 3563 3897 l139 147 37 -14 c21 -7 52 -13 68 -13z m7700
-281 c233 -146 7700 -4943 7850 -5043 152 -101 155 -103 70 -71 -39 14 -110
41 -160 59 -126 46 -7756 2989 -7940 3063 -215 86 -203 79 -210 123 -10 60
-56 123 -109 148 -25 13 -46 24 -46 24 1 65 107 1290 136 1568 l17 157 36 7
c46 8 117 50 131 75 13 25 1 31 225 -110z m-25979 -3115 c1365 -1820 1406
-1875 1400 -1875 -8 0 -2856 3089 -2856 3097 -1 17 204 433 211 431 5 -2 565
-745 1245 -1653z m-85 -302 c761 -824 1425 -1545 1478 -1603 52 -58 108 -119
124 -137 29 -31 29 -31 11 -57 -11 -14 -24 -26 -31 -26 -7 0 -171 79 -365 176
-348 174 -3300 1664 -3306 1669 -4 3 699 1475 704 1475 2 0 625 -674 1385
-1497z m25274 1430 c9 -20 33 -53 55 -73 l40 -37 -64 -184 c-89 -257 -1031
-2867 -1109 -3074 -61 -163 -65 -170 -93 -173 -16 -1 -49 -10 -72 -18 l-44
-16 -31 29 c-18 16 -88 81 -157 144 -116 106 -2130 1988 -2339 2185 l-94 89
17 32 c9 18 19 52 22 76 l6 44 182 51 c200 56 3126 831 3436 910 107 28 203
51 212 51 11 1 23 -13 33 -36z m850 -143 c2792 -1074 7883 -3041 7906 -3056 4
-2 4 -15 2 -29 -6 -31 -13 -32 -263 -45 -413 -21 -8978 -390 -9210 -396 l-245
-7 -28 41 c-15 23 -44 51 -66 64 l-39 22 68 196 c92 266 1038 2888 1110 3075
l57 150 59 5 c32 3 73 13 90 22 36 20 89 77 99 107 6 19 10 19 118 -20 62 -22
216 -80 342 -129z m-5116 -949 c15 -36 67 -87 104 -100 19 -7 27 -17 27 -35 0
-71 -232 -1554 -247 -1578 -2 -5 -15 -8 -29 -8 -61 0 -132 -48 -164 -111 l-19
-36 -223 33 c-280 42 -5482 892 -5713 934 -166 30 -184 35 -173 45 10 11 549
87 3193 451 2731 375 3143 431 3201 433 26 1 34 -4 43 -28z m486 -218 c134
-123 2103 -1963 2373 -2218 76 -72 84 -83 74 -101 l-11 -21 -213 43 c-505 102
-2600 558 -2620 571 -5 2 -8 18 -8 35 0 64 -70 160 -133 181 -8 2 -8 29 2 103
31 248 226 1479 237 1495 2 4 23 11 46 17 24 6 52 18 63 26 11 9 22 15 25 16
3 0 77 -66 165 -147z m-21355 -1246 c701 -355 1311 -664 1355 -688 l80 -42 0
-61 c0 -34 4 -72 8 -86 7 -24 -1 -30 -145 -121 -185 -116 -6168 -3814 -6287
-3886 l-84 -50 -23 19 -22 20 28 62 c61 134 256 543 1480 3101 700 1463 1294
2706 1321 2763 l48 103 483 -245 c266 -134 1057 -535 1758 -889z m14638 513
c250 -37 5454 -888 5702 -932 l185 -33 12 -48 c16 -64 47 -112 91 -138 20 -12
39 -24 41 -25 6 -5 -44 -211 -505 -2084 -441 -1790 -553 -2240 -575 -2307 -9
-29 -15 -33 -44 -33 -19 0 -56 -7 -82 -16 l-48 -16 -74 78 c-41 44 -1112 1227
-2380 2629 -1951 2158 -2408 2663 -2573 2851 -18 21 -18 22 8 63 15 22 31 41
36 41 5 0 98 -13 206 -30z m-414 -101 c30 0 64 4 75 10 11 6 22 11 24 11 8 0
331 -356 2482 -2735 1875 -2074 2281 -2523 2469 -2734 49 -54 21 -31 -2769
2298 -2268 1893 -2787 2328 -2863 2396 -10 9 -10 18 3 48 23 54 19 126 -9 178
l-23 45 75 84 c41 47 149 165 239 262 l165 177 38 -20 c25 -13 58 -20 94 -20z
m23911 -169 c15 -47 103 -120 147 -120 38 -1 39 -10 23 -201 -25 -286 -583
-6071 -605 -6274 -28 -246 -22 -229 -75 -241 l-45 -10 -101 170 c-128 215
-2968 5134 -3112 5389 l-105 188 24 52 c13 29 24 64 24 78 0 24 6 27 153 67
190 51 3293 839 3477 882 74 17 140 33 145 35 26 9 44 3 50 -15z m539 -117
c181 -116 6285 -4132 6603 -4344 121 -81 224 -152 227 -157 3 -5 -1 -24 -10
-41 -9 -17 -19 -53 -22 -79 l-7 -47 -140 -43 c-188 -57 -7074 -2048 -7290
-2107 -93 -26 -171 -43 -172 -38 -14 41 -87 117 -132 135 -13 5 11 261 304
3308 256 2655 330 3402 338 3404 32 10 103 56 118 78 11 15 23 28 26 28 3 0
74 -44 157 -97z m-25381 -479 c26 -34 112 -74 157 -73 42 0 105 21 129 43 22
20 -263 254 2896 -2383 3079 -2571 2887 -2409 2874 -2433 -5 -10 -13 -18 -17
-18 -28 0 -9269 2659 -9757 2808 l-160 48 -6 46 c-4 25 -12 55 -18 66 -6 12
-8 23 -4 25 122 71 3850 1892 3882 1896 2 1 12 -11 24 -25z m7924 -233 c360
-75 2120 -455 2349 -508 l201 -46 -1 -46 c-1 -25 2 -58 7 -73 7 -25 -3 -38
-135 -166 -145 -141 -3529 -3332 -3802 -3584 l-148 -138 -29 17 c-16 10 -29
21 -29 26 0 35 1011 4141 1080 4388 10 34 13 37 59 43 59 8 105 37 146 93 16
23 38 42 47 42 9 1 124 -21 255 -48z m12691 -215 c22 -49 82 -105 123 -113 16
-3 32 -9 34 -13 3 -4 -15 -91 -40 -193 -62 -258 -1613 -6304 -1682 -6560 l-56
-208 -39 6 c-25 5 -57 1 -93 -10 l-55 -18 -97 79 c-140 113 -7376 6142 -7631
6358 -159 134 -211 184 -206 196 4 8 9 36 12 61 l4 45 316 17 c416 23 8820
386 9112 394 124 3 226 7 228 8 1 1 14 0 27 -3 18 -3 31 -17 43 -46z m424
-271 c122 -204 2972 -5142 3101 -5372 53 -95 97 -175 97 -178 0 -4 -13 -23
-29 -43 -33 -43 -51 -91 -51 -137 l0 -33 -212 -41 c-259 -49 -3146 -566 -3417
-611 l-194 -33 -33 40 c-18 22 -47 46 -64 53 -30 12 -31 15 -26 59 3 25 13
127 21 226 38 450 617 6142 630 6202 7 29 55 56 71 40 6 -7 54 -84 106 -172z
m-251 -144 c-31 -322 -584 -5796 -601 -5951 -28 -243 -23 -227 -73 -235 -100
-16 -173 -94 -186 -197 l-6 -51 -210 -92 c-115 -50 -296 -126 -401 -169 l-190
-77 -40 40 -40 40 37 158 c36 153 1603 6268 1677 6546 20 76 38 133 41 126 2
-6 -2 -68 -8 -138z m-10224 -151 c26 -16 55 -30 65 -30 23 0 33 -27 42 -110 3
-36 11 -112 16 -170 10 -106 771 -9171 790 -9414 6 -72 13 -187 17 -256 l6
-125 -32 -12 -31 -11 -138 161 c-156 184 -4683 5626 -4811 5785 l-84 104 24
49 c26 57 30 128 9 178 l-13 33 70 67 c39 36 896 845 1905 1796 1970 1859
2104 1985 2112 1985 3 0 27 -13 53 -30z m454 -113 c183 -150 7645 -6370 7714
-6430 l40 -35 -22 -38 c-28 -51 -37 -103 -25 -146 l10 -36 -347 -170 c-455
-224 -6220 -3008 -6469 -3124 l-193 -91 -27 26 c-35 33 -85 57 -116 57 -32 0
-30 -8 -56 260 -20 212 -755 8982 -785 9360 -8 107 -17 222 -20 255 -2 33 -5
89 -6 124 l-3 64 40 14 c21 8 48 22 59 33 11 11 22 20 26 20 3 0 84 -64 180
-143z m-15306 -930 c7 -21 21 -47 30 -57 17 -19 15 -27 -43 -182 -75 -204
-4828 -12371 -4923 -12604 l-70 -170 -47 -1 c-26 0 -64 -8 -84 -16 l-37 -16
-67 72 c-74 80 -8516 9805 -8711 10035 l-122 144 19 38 c11 21 21 56 22 79 2
23 4 41 5 41 0 0 77 16 169 35 174 37 13365 2562 13654 2614 91 16 171 29 178
28 8 -1 20 -19 27 -40z m740 -93 c334 -94 9053 -2609 9313 -2686 l272 -81 0
-40 c0 -85 75 -178 156 -193 26 -5 34 -12 35 -28 7 -134 -30 -3147 -47 -3878
l-7 -286 -31 -5 c-17 -3 -40 -8 -52 -12 -16 -5 -63 24 -215 132 -254 182
-9347 6804 -9591 6985 -104 77 -188 144 -188 148 0 5 3 15 6 23 6 17 11 15
349 -79z m-205 -119 c163 -116 9382 -6829 9608 -6997 94 -70 172 -130 172
-134 0 -3 -9 -17 -19 -31 -11 -13 -25 -48 -32 -78 -10 -45 -9 -61 5 -105 9
-28 13 -57 9 -65 -12 -21 -38 -50 -2862 -3225 -2670 -3001 -2928 -3290 -2939
-3290 -3 0 -13 7 -23 16 -9 8 -38 23 -65 33 l-48 19 -43 138 c-144 465 -4053
13760 -4053 13786 0 4 15 14 33 22 17 8 41 21 52 29 17 13 22 13 50 -8 16 -12
86 -62 155 -110z m-375 75 c28 -5 31 -11 78 -160 56 -180 3945 -13393 4006
-13611 23 -80 41 -150 41 -156 0 -6 -14 -16 -32 -22 -50 -18 -94 -57 -117
-104 -18 -38 -25 -43 -49 -40 -15 1 -101 10 -192 18 -185 18 -8173 922 -8485
960 -257 32 -255 32 -255 58 -1 39 -36 102 -75 135 l-38 31 38 103 c52 139
4805 12310 4907 12563 44 110 85 212 91 227 9 23 14 25 31 16 12 -6 34 -14 51
-18z m36352 -2085 l32 -44 -117 -148 c-166 -209 -2861 -3529 -3001 -3696
l-115 -139 -40 6 c-59 9 -134 -16 -175 -58 l-33 -34 -236 103 c-305 132 -3514
1558 -3774 1677 l-198 91 6 41 c4 22 8 42 9 43 8 12 7565 2199 7605 2201 3 1
19 -19 37 -43z m169 -267 c-5 -144 -475 -8737 -517 -9458 -14 -240 -17 -248
-46 -115 -13 61 -235 1224 -493 2585 -398 2100 -493 2606 -535 2856 -5 27 0
34 39 61 25 18 54 50 66 74 40 77 24 186 -34 244 l-26 26 41 112 c54 147 1352
3465 1419 3627 28 69 56 135 61 148 4 12 14 22 20 22 9 0 10 -45 5 -182z
m1435 -7613 c726 -4130 1333 -7589 1348 -7685 23 -148 25 -176 14 -183 -8 -5
-16 -7 -17 -5 -23 27 -2874 4878 -3070 5223 l-95 168 24 22 c38 36 65 99 65
152 -1 93 -63 176 -152 202 l-40 12 6 107 c3 59 8 163 11 232 11 255 506 9241
517 9395 l12 160 28 -145 c16 -80 622 -3524 1349 -7655z m-1660 7588 c-136
-247 -1661 -2947 -1758 -3113 l-79 -135 -60 -1 c-127 -3 -214 -88 -214 -209 0
-25 -1 -45 -3 -45 -2 0 -86 -29 -188 -65 -101 -36 -310 -106 -464 -156 l-279
-89 -28 27 -28 28 132 165 c411 514 3057 3770 3063 3770 2 0 -40 -80 -94 -177z
m98 55 c-12 -29 -29 -75 -39 -103 -63 -177 -1414 -3612 -1425 -3624 -11 -11
-56 15 -105 59 -30 27 -59 50 -64 50 -12 0 -66 61 -66 73 0 6 -3 7 -6 4 -8 -7
-54 42 -54 57 0 5 -3 7 -6 3 -9 -9 -30 15 -39 42 -4 13 -25 43 -47 67 l-40 44
77 142 c170 313 1824 3238 1831 3238 2 0 -6 -24 -17 -52z m-50567 -478 c108
-121 8504 -9795 8681 -10003 64 -76 117 -140 117 -142 0 -2 -10 -21 -22 -42
-17 -28 -23 -54 -23 -101 l-1 -63 -104 -56 c-125 -66 -7409 -3656 -7750 -3818
-205 -99 -237 -111 -251 -99 -9 8 -37 21 -62 30 -26 9 -47 19 -47 23 0 5 -5
64 -10 132 -10 128 -694 13714 -706 14030 l-6 176 38 20 c22 11 42 20 45 19 4
0 49 -48 101 -106z m24780 -262 c125 -146 4702 -5649 4837 -5816 82 -102 83
-103 66 -128 -9 -14 -22 -24 -28 -21 -7 2 -77 26 -157 52 -246 81 -4496 1531
-4654 1588 l-149 53 -18 49 c-22 58 -57 97 -110 120 l-39 18 -1 86 c-4 300 35
3354 49 3851 l7 245 35 17 c19 9 38 17 42 18 3 0 57 -60 120 -132z m17719
-1311 l27 -33 -146 -160 c-222 -241 -6174 -6626 -6345 -6806 -83 -87 -154
-158 -159 -158 -26 0 -68 -106 1257 3160 1045 2576 1186 2923 1239 3041 l25
56 60 5 c110 8 191 93 191 200 0 26 1 48 3 48 1 0 83 16 182 35 196 39 2999
542 3365 605 124 21 236 39 250 39 17 1 34 -10 51 -32z m518 -72 c186 -78
3600 -1596 3842 -1707 l197 -91 -10 -35 c-31 -111 77 -242 199 -242 l48 0 74
-158 c102 -218 973 -2149 1088 -2412 51 -118 91 -220 89 -227 -11 -27 -39 -9
-183 114 -310 266 -5264 4596 -5492 4801 -43 38 -45 39 148 -43z m-44 -111
c190 -161 5263 -4593 5395 -4712 58 -53 106 -96 108 -97 1 -1 -7 -22 -18 -46
-11 -24 -20 -56 -20 -70 0 -25 -4 -27 -107 -47 -60 -12 -184 -35 -278 -51
-350 -63 -11718 -2001 -11895 -2029 l-185 -28 -24 39 -23 39 29 31 c16 18 81
88 144 157 131 144 6228 6684 6370 6834 l95 99 33 -11 c53 -19 112 -14 161 11
34 17 49 20 60 12 8 -6 78 -65 155 -131z m-4704 -628 c13 -19 36 -42 52 -51
15 -9 26 -22 24 -28 -3 -7 -28 -73 -57 -147 -51 -132 -2317 -5719 -2381 -5872
-18 -43 -34 -76 -35 -75 -2 2 8 50 21 107 45 195 1283 5244 1317 5369 l33 124
43 12 c94 28 152 106 152 203 l0 53 76 34 c151 69 707 302 725 304 4 1 17 -14
30 -33z m-1113 -555 c17 -7 32 -17 32 -22 0 -32 -1265 -5214 -1363 -5581 -40
-151 -42 -158 -67 -158 -37 0 -123 -43 -146 -73 l-19 -25 -230 97 c-336 143
-4973 2167 -5149 2248 l-148 68 -3 71 -3 72 367 180 c412 203 6180 2989 6451
3117 l175 82 35 -31 c19 -18 50 -38 68 -45z m11245 -226 c27 -34 92 -75 119
-75 8 0 20 -9 28 -20 8 -11 19 -20 24 -20 5 0 23 -16 42 -35 18 -19 37 -35 43
-35 6 0 11 -5 11 -11 0 -5 5 -7 10 -4 6 3 10 2 10 -4 0 -15 57 -71 64 -64 3 4
6 0 6 -9 0 -12 -33 -16 -212 -21 -255 -8 -855 -7 -992 2 -55 3 -101 11 -103
16 -4 14 854 309 912 314 6 1 23 -15 38 -34z m213 -345 l204 0 20 -39 c22 -44
70 -85 118 -102 27 -9 32 -16 32 -44 0 -97 -301 -2662 -325 -2771 -3 -15 -14
-23 -34 -26 l-30 -4 -105 225 c-136 296 -954 2108 -1066 2366 -76 174 -86 201
-71 209 53 29 101 103 101 155 l0 31 193 3 c105 2 320 2 476 1 156 -2 376 -4
487 -4z m483 -390 c56 -279 942 -4960 981 -5184 17 -98 29 -183 27 -189 -1 -5
-37 50 -79 124 -116 205 -1121 2049 -1186 2176 l-57 112 22 23 c89 95 57 266
-61 322 -30 14 -35 21 -31 44 3 15 12 101 20 192 19 192 255 2204 285 2424 11
82 20 156 20 164 0 10 3 12 9 7 4 -6 27 -102 50 -215z m-24310 -717 c102 -31
4488 -1527 4706 -1604 l150 -54 6 -60 c6 -64 19 -96 53 -133 l21 -24 -84 -161
c-99 -190 -2459 -4560 -2566 -4752 -40 -71 -81 -145 -91 -162 -16 -28 -25 -33
-61 -34 -24 -1 -48 -2 -55 -3 -6 -1 -34 62 -61 139 -49 141 -2066 6296 -2151
6565 -25 79 -46 152 -46 160 0 9 11 27 25 40 13 13 32 43 41 67 9 23 19 43 21
43 3 0 44 -12 92 -27z m-363 -139 l34 -6 0 -167 c0 -181 -203 -6187 -220
-6491 -5 -102 -10 -193 -10 -202 0 -14 -8 -18 -32 -18 -74 -1 -168 -73 -183
-139 -4 -17 -12 -31 -18 -31 -46 0 -828 66 -2792 235 -2128 183 -2643 229
-2651 237 -1 2 -8 24 -15 50 l-12 46 124 143 c198 228 5470 6152 5586 6277
l105 112 25 -20 c14 -11 40 -22 59 -26z m203 -205 c94 -279 2078 -6336 2137
-6527 43 -137 46 -153 32 -165 -22 -16 -58 -78 -58 -99 0 -13 -15 -17 -92 -22
-148 -10 -641 -22 -1974 -51 l-252 -6 -6 35 c-9 47 -55 107 -100 131 l-38 20
6 250 c11 394 204 6082 216 6355 6 135 14 253 16 262 4 14 32 29 42 23 1 -1
33 -94 71 -206z m5577 -1537 c163 -68 5009 -2182 5204 -2271 l155 -70 1 -55
c1 -30 4 -62 7 -70 5 -11 -29 -37 -126 -98 -175 -109 -3809 -2289 -4050 -2430
l-188 -110 -46 31 c-26 18 -66 33 -92 37 l-47 6 -42 182 c-55 231 -980 4421
-1021 4621 -17 83 -33 160 -36 172 -4 17 4 26 39 47 24 14 51 36 60 50 13 21
20 24 39 17 12 -5 76 -32 143 -59z m-372 -38 c41 -7 35 10 97 -255 66 -286
947 -4275 999 -4526 37 -182 45 -233 34 -233 -25 0 -92 -70 -110 -114 l-18
-44 -191 -6 c-405 -14 -2949 -49 -3407 -46 l-86 0 -23 46 c-13 29 -39 58 -65
77 l-44 31 86 165 c103 198 2476 4591 2577 4771 82 147 86 152 103 146 7 -3
29 -8 48 -12z m18621 -244 c4 -11 18 -34 32 -50 l25 -30 -124 -173 c-182 -251
-5571 -7565 -5702 -7737 l-111 -146 -55 4 c-35 3 -69 -1 -91 -11 l-35 -14
-129 116 c-326 291 -6315 5779 -6315 5786 0 2 7 18 15 37 8 20 16 53 18 74 l4
39 149 28 c152 28 11676 1998 12059 2060 256 42 252 42 260 17z m195 -125 c30
0 64 2 74 5 25 7 9 35 656 -1150 702 -1288 684 -1254 663 -1271 -24 -20 -63
-109 -63 -144 0 -17 4 -45 9 -63 l10 -32 -157 -118 c-304 -229 -7104 -5187
-7196 -5247 -21 -14 4 27 89 145 166 230 5551 7539 5698 7733 105 140 121 157
141 150 11 -4 46 -8 76 -8z m-13029 -2149 c10 -13 32 -29 49 -36 16 -7 30 -19
30 -26 0 -64 -532 -3197 -556 -3276 -4 -14 -16 -18 -47 -18 -57 0 -137 -46
-162 -94 -12 -23 -25 -34 -35 -32 -8 3 -76 17 -150 31 -305 60 -3402 729
-3471 751 -9 2 -22 27 -30 57 l-15 52 126 78 c115 72 3996 2402 4155 2494 39
23 74 42 79 42 4 1 16 -10 27 -23z m439 -147 c139 -123 6023 -5512 6168 -5648
67 -63 122 -118 122 -123 0 -4 -10 -8 -22 -8 -19 0 -6175 2047 -6775 2253
-225 76 -233 80 -233 106 0 54 -23 106 -64 147 -22 23 -46 43 -53 45 -9 3 -3
60 22 224 40 254 452 2683 489 2885 41 220 34 200 70 200 17 0 54 11 81 24
l50 23 25 -21 c14 -12 68 -60 120 -107z m13995 -429 c29 -32 98 -53 159 -48
l55 5 179 -301 c245 -411 2755 -4688 2878 -4905 l100 -175 -44 -40 c-29 -27
-47 -53 -55 -83 -8 -32 -16 -43 -32 -44 -115 -5 -1296 13 -5040 76 -4902 83
-5452 93 -5512 101 -33 4 -46 12 -62 36 l-19 32 141 106 c173 130 6815 4976
7047 5142 91 64 170 118 176 118 6 0 19 -9 29 -20z m-40655 -725 c207 -20
8107 -914 8440 -956 291 -36 290 -36 290 -60 0 -28 28 -90 51 -116 14 -14 18
-26 12 -36 -4 -8 -69 -80 -143 -158 -217 -230 -3294 -3454 -3400 -3563 l-96
-98 -32 16 c-43 22 -129 21 -176 -4 l-39 -19 -36 31 c-72 62 -4824 4591 -5034
4797 l-107 106 21 42 c18 38 23 41 52 37 18 -2 106 -11 197 -19z m-585 -76
c16 -18 44 -38 61 -45 29 -12 32 -17 28 -51 -2 -21 -11 -114 -20 -208 -15
-171 -561 -5238 -589 -5480 -9 -71 -20 -159 -25 -195 -5 -36 -10 -68 -10 -72
0 -5 -15 -8 -32 -8 -66 0 -138 -46 -183 -118 -1 -1 -82 20 -181 47 -229 63
-6873 2008 -7019 2055 l-110 36 -15 48 -16 49 306 153 c227 113 7267 3580
7685 3785 39 18 75 34 80 34 6 1 23 -13 40 -30z m2757 -2376 c1277 -1219 2407
-2298 2511 -2397 l187 -181 -20 -42 c-11 -23 -20 -54 -20 -68 0 -14 -2 -25 -4
-25 -2 0 -100 -20 -217 -45 -478 -100 -5529 -1075 -5569 -1075 -4 0 -13 13
-20 30 -12 29 -75 93 -99 101 -9 3 -7 56 9 224 22 228 569 5308 594 5520 8 66
18 147 22 180 9 77 18 95 52 95 15 1 43 9 62 19 l35 19 76 -69 c43 -38 1123
-1067 2401 -2286z m7313 1391 c261 -19 4673 -399 4875 -419 258 -25 238 -20
252 -68 7 -23 12 -45 13 -49 0 -13 -96 -71 -4095 -2471 -3866 -2320 -4313
-2587 -4328 -2587 -4 0 -15 12 -25 25 -17 24 -16 26 36 137 61 128 2356 4624
2565 5025 l137 261 46 6 c70 9 132 54 160 115 l24 51 70 -5 c39 -3 160 -12
270 -21z m-676 -246 c-122 -247 -284 -566 -1424 -2798 -640 -1251 -1187 -2319
-1216 -2373 -46 -85 -56 -97 -74 -92 -46 14 -93 17 -126 7 l-36 -9 -63 101
c-175 277 -361 579 -522 845 -177 294 -178 295 -159 315 30 32 61 107 60 146
0 42 -21 105 -42 128 -20 22 -156 -123 1742 1867 1521 1595 1897 1985 1913
1985 5 0 -19 -55 -53 -122z m12631 -118 c0 -51 68 -139 120 -155 26 -8 26 -11
-10 -266 -37 -258 -421 -2753 -424 -2756 -3 -3 -3085 2705 -3308 2906 l-116
104 24 45 c13 25 24 55 24 67 l0 23 317 7 c604 14 2480 42 2926 44 444 1 447
1 447 -19z m630 -64 c212 -42 2933 -628 3215 -692 110 -25 203 -49 207 -52 3
-4 8 -31 10 -60 l3 -54 -120 -65 c-297 -161 -4208 -2193 -4213 -2189 -8 8 447
2949 463 2994 2 6 16 12 30 12 63 0 133 48 166 113 16 30 24 36 42 32 12 -2
101 -20 197 -39z m-4735 -4 c12 -55 60 -118 108 -141 53 -26 47 -6 82 -261 24
-177 995 -8171 995 -8187 0 -4 -5 -1 -9 7 -13 22 -3427 8067 -3504 8256 l-65
159 28 32 c15 17 33 47 39 66 10 30 17 36 49 41 57 8 1516 47 2064 54 l206 3
7 -29z m460 -243 c72 -62 847 -742 1723 -1512 1096 -964 1592 -1406 1589
-1417 -2 -9 -573 -1250 -1268 -2759 -1094 -2376 -1265 -2740 -1271 -2715 -9
37 -972 7974 -1002 8262 l-22 213 25 5 c14 3 40 11 56 19 17 8 32 14 35 14 3
1 64 -49 135 -110z m-3089 65 c24 -14 44 -29 44 -33 0 -24 -3895 -11361 -3979
-11582 -20 -54 -24 -57 -61 -62 -23 -3 -58 -14 -79 -24 l-38 -19 -110 156
c-143 201 -4030 5876 -4196 6124 l-126 189 23 31 c33 43 49 101 42 146 l-6 39
132 82 c349 217 8292 4979 8305 4979 3 0 24 -12 49 -26z m262 -171 c81 -183
3553 -8361 3559 -8383 3 -11 -861 -381 -3629 -1555 -1998 -847 -3712 -1572
-3809 -1611 l-176 -72 -17 29 c-9 15 -33 38 -54 50 -20 12 -39 24 -41 25 -1 2
25 87 59 191 75 224 3840 11176 3900 11344 l41 115 42 11 c23 5 45 11 48 12 4
0 38 -70 77 -156z m14452 -1666 l3485 -1162 -4 -30 c-3 -16 -5 -44 -5 -62 -1
-31 -8 -36 -151 -119 -193 -111 -5636 -3152 -5776 -3227 l-106 -57 -24 26
c-30 34 -95 63 -136 64 -36 0 -33 -9 -73 220 -30 171 -776 4956 -805 5160 -14
96 -27 189 -30 206 -5 28 -1 34 30 53 19 11 45 36 56 56 12 19 28 35 37 35 10
0 1585 -523 3502 -1163z m-3773 1044 c36 -10 39 -13 36 -43 -2 -18 -10 -112
-18 -208 -21 -237 -499 -4878 -531 -5155 -14 -121 -27 -229 -30 -240 -3 -12
-30 -32 -72 -52 l-66 -33 -31 28 c-16 15 -86 80 -155 143 -214 196 -3595 3362
-3598 3369 -2 5 4004 2094 4263 2223 l90 45 37 -34 c20 -18 54 -38 75 -43z
m528 -2740 c212 -1355 397 -2543 410 -2640 14 -97 27 -190 30 -208 5 -28 2
-33 -35 -54 -48 -27 -89 -83 -97 -133 -4 -26 -12 -38 -27 -41 -27 -6 -606 -32
-898 -41 -216 -6 -228 -6 -228 11 0 33 -41 104 -72 127 -17 12 -47 27 -67 34
-41 14 -40 -15 -15 264 17 196 493 4824 525 5105 29 262 30 269 36 285 10 26
43 -181 438 -2709z m-39960 2269 c187 -41 4426 -1051 4585 -1093 95 -25 124
-36 121 -47 -10 -43 -2 -119 17 -156 24 -47 72 -91 108 -100 18 -5 24 -13 24
-34 0 -64 -55 -657 -350 -3780 -326 -3453 -345 -3652 -360 -3686 -7 -18 -57
-42 -65 -32 -23 28 -4076 8293 -4260 8688 l-73 155 26 30 c14 16 31 44 38 62
10 22 19 30 31 27 10 -2 81 -18 158 -34z m-196 -307 c139 -279 4149 -8470
4195 -8570 l37 -82 -28 -42 c-24 -37 -28 -53 -29 -123 l-1 -80 -139 -79 c-244
-139 -6748 -3691 -6925 -3782 l-77 -39 -35 31 c-20 17 -43 35 -52 40 -14 8
-11 32 29 224 65 308 2729 12321 2777 12521 l40 167 42 4 c23 2 48 4 54 5 7 1
57 -86 112 -195z m8981 -1994 c1823 -533 3385 -992 3470 -1019 l155 -49 1 -49
c1 -34 10 -65 27 -97 l27 -48 -42 -46 c-36 -41 -3092 -3197 -3425 -3538 -71
-73 -134 -133 -139 -133 -5 0 -28 5 -51 10 -28 7 -58 7 -85 1 -35 -8 -44 -7
-54 7 -61 83 -3533 5774 -3589 5883 -14 25 -13 31 10 71 14 24 25 50 25 59 0
23 -123 58 3670 -1052z m-3638 721 c116 -185 3282 -5377 3396 -5568 l90 -154
-33 -44 c-19 -25 -37 -61 -40 -82 -4 -20 -8 -42 -10 -48 -4 -15 -162 -74
-2095 -789 -2046 -757 -2083 -770 -2089 -753 -8 27 -79 84 -119 96 -49 15 -48
9 -31 223 18 229 648 6892 669 7080 11 98 20 185 20 194 0 10 10 15 28 15 15
1 41 7 57 14 35 15 23 29 157 -184z m31591 -1859 c991 -928 1844 -1728 1895
-1777 92 -87 94 -90 82 -119 -6 -16 -12 -50 -14 -75 l-2 -45 -145 -43 c-242
-74 -6163 -1781 -6166 -1778 -3 3 2540 5526 2545 5526 1 0 813 -760 1805
-1689z m15517 1554 c4451 -75 5402 -93 5431 -101 8 -2 21 -20 28 -40 7 -20 29
-53 47 -74 l34 -38 -143 -193 c-190 -258 -4824 -6400 -4940 -6548 -50 -64 -91
-117 -91 -118 -1 -1 -22 5 -46 13 -26 9 -61 14 -83 11 l-37 -5 -144 181 c-173
220 -5004 6501 -5152 6698 l-104 140 20 37 c11 20 20 56 20 80 l0 43 378 -6
c207 -3 2359 -39 4782 -80z m-5591 -71 c-27 -29 -2159 -2139 -4806 -4756
l-373 -368 -37 18 c-51 26 -92 32 -135 23 l-36 -8 -87 181 c-103 212 -477
1014 -560 1200 l-57 129 31 24 c51 40 75 97 74 175 l0 68 181 104 c222 127
5078 2841 5515 3083 173 95 317 170 320 168 2 -3 -11 -22 -30 -41z m108 -44
c26 -16 54 -30 63 -30 15 0 18 -19 23 -137 9 -177 9 -8528 0 -8694 l-6 -127
-46 -6 c-25 -3 -61 -15 -80 -27 -18 -11 -39 -18 -46 -15 -7 2 -97 64 -200 136
-268 189 -4674 3344 -4822 3453 -104 77 -123 95 -118 112 19 56 17 133 -3 179
l-21 46 2172 2147 c2541 2512 3028 2993 3033 2993 2 0 25 -13 51 -30z m376
-157 c163 -207 4988 -6481 5141 -6685 l118 -158 -31 -26 c-41 -34 -62 -76 -70
-138 l-6 -49 -185 -80 c-235 -101 -3663 -1526 -3990 -1658 l-245 -100 -19 27
c-20 27 -107 74 -138 74 -10 0 -18 6 -18 13 0 7 -9 100 -20 206 -21 203 -709
8075 -735 8411 -22 287 -23 282 23 302 20 9 40 17 44 17 4 1 62 -70 131 -156z
m10737 -17 c0 -50 -1359 -6459 -1408 -6641 -8 -29 -12 -30 -73 -36 -35 -3 -77
-13 -94 -21 -52 -28 -92 -82 -105 -142 -4 -21 -13 -32 -32 -37 -29 -8 -649
-21 -2083 -44 -1099 -18 -1385 -19 -1385 -4 0 6 -9 24 -21 40 l-21 30 25 38
c41 61 241 327 2585 3436 2655 3520 2567 3404 2593 3398 10 -3 19 -11 19 -17z
m-39256 -130 c22 -88 156 -152 258 -124 26 8 31 1 181 -240 193 -308 452 -731
541 -880 l67 -114 -30 -34 c-17 -18 -36 -52 -43 -75 l-12 -42 -150 7 c-83 3
-187 9 -231 11 -44 3 -1401 86 -3015 185 -2819 173 -3318 205 -3326 213 -7 7
462 99 2931 578 2126 412 2766 534 2811 538 7 1 15 -10 18 -23z m39906 -11362
c313 -6155 570 -11222 569 -11260 l-1 -69 -9 45 c-15 72 -2066 12321 -2105
12565 -18 121 -34 229 -34 241 0 11 9 29 19 38 11 10 29 38 40 62 40 85 19
191 -51 250 l-35 29 19 200 c19 206 946 8841 973 9065 29 243 28 238 37 125 4
-55 264 -5136 578 -11291z m-11265 7226 c195 -2241 357 -4104 360 -4140 31
-390 31 -376 0 -384 -51 -13 -135 -112 -135 -160 0 -18 -29 -22 -220 -36 -80
-6 -166 -13 -191 -15 l-46 -5 -12 40 c-14 47 -52 95 -92 116 l-29 15 1 4337
c1 2385 3 4330 5 4322 2 -8 164 -1849 359 -4090z m10611 3953 c-88 -834 -962
-8944 -975 -9051 -11 -85 -21 -155 -23 -157 -11 -11 -378 2348 -378 2426 0 10
20 37 44 60 25 22 50 57 57 77 28 84 3 182 -60 235 l-31 25 49 244 c27 134
329 1559 671 3168 342 1609 626 2949 632 2978 14 69 21 66 14 -5z m-41700
-1148 c3723 -229 3414 -208 3414 -234 0 -9 13 -39 30 -67 37 -65 107 -104 185
-104 l50 0 33 -112 c55 -190 978 -3592 1023 -3771 23 -92 40 -169 38 -170 -2
-2 -23 -15 -45 -29 -135 -86 -103 -305 54 -364 l42 -17 0 -496 c0 -765 -18
-3115 -26 -3307 l-6 -171 -40 -1 c-56 -3 -102 -27 -147 -78 l-39 -44 -184 64
c-239 84 -8306 3016 -8503 3091 -82 31 -153 59 -157 63 -4 4 -2 27 3 52 20 89
-28 188 -112 230 -33 18 -38 24 -34 48 3 15 21 133 40 262 43 293 743 4681
790 4956 19 110 35 204 35 207 0 4 9 7 20 7 66 0 160 82 175 152 l7 31 173 -6
c95 -4 1526 -90 3181 -192z m-3596 -7 c0 -68 -843 -5344 -866 -5420 -4 -12
-16 -18 -37 -18 -45 -1 -108 -31 -139 -68 l-26 -31 -258 163 c-377 236 -1866
1187 -2096 1338 l-197 130 6 47 c6 55 -7 104 -43 156 l-25 37 79 81 c609 632
3228 3336 3355 3463 l169 171 39 -15 c26 -10 39 -21 39 -34z m7436 -538 c125
-179 4020 -5864 4186 -6110 78 -116 134 -208 129 -213 -5 -5 -75 35 -162 94
-192 128 -2589 1783 -2795 1930 l-151 108 9 43 c27 116 -64 236 -188 246 -30
2 -54 5 -54 6 0 1 -16 55 -35 121 -49 164 -975 3574 -1020 3755 -20 80 -38
154 -41 165 l-6 20 20 -20 c11 -11 59 -76 108 -145z m20263 -1258 c40 -78 128
-129 207 -120 l33 4 99 -206 c212 -437 602 -1283 602 -1305 0 -8 -9 -19 -20
-25 -25 -13 37 -58 -1015 724 -1053 782 -1108 824 -1099 844 6 15 28 74 29 79
1 2 550 31 670 36 39 1 161 4 272 5 l202 3 20 -39z m-1551 -86 c6 -14 24 -34
40 -46 l30 -22 -53 -157 c-57 -168 -2117 -5927 -2210 -6177 l-56 -152 -62 -5
c-34 -3 -72 -8 -83 -12 -18 -6 -38 13 -128 120 -226 267 -3827 4647 -3823
4651 7 8 6298 1820 6328 1823 3 1 11 -10 17 -23z m486 -173 c221 -162 1663
-1234 1814 -1350 67 -52 122 -97 122 -101 0 -4 -5 -25 -11 -46 -14 -52 -4
-116 27 -161 l25 -37 -118 -146 c-149 -187 -3560 -4351 -3746 -4574 -129 -155
-141 -166 -162 -156 -13 6 -21 17 -19 27 29 128 251 991 884 3436 653 2521
794 3062 826 3168 4 13 16 17 52 17 27 0 62 8 82 19 19 10 41 19 49 20 7 0 86
-52 175 -116z m-1234 -3145 c-413 -1596 -781 -3014 -818 -3149 l-66 -247 -45
-6 c-26 -3 -58 -12 -72 -20 -15 -7 -32 -10 -38 -6 -7 4 -30 6 -52 5 -21 -1
-39 2 -39 6 0 12 -42 1 -52 -13 -6 -10 -8 -10 -8 0 0 7 -4 10 -10 7 -5 -3 -10
-1 -10 5 0 6 -4 9 -9 6 -5 -4 -11 -3 -13 1 -4 10 -100 57 -110 55 -5 -1 -8 3
-8 10 0 6 -2 9 -5 6 -3 -3 -26 16 -52 41 l-46 46 41 125 c61 186 2156 6039
2160 6035 2 -2 -335 -1310 -748 -2907z m-3787 -755 c1010 -1227 1891 -2300
1958 -2383 l122 -151 -19 -35 c-10 -18 -24 -34 -32 -34 -7 0 -86 18 -175 41
-213 53 -5008 1329 -5156 1371 l-114 33 -1 65 c-2 76 -36 147 -86 177 l-29 17
87 171 c220 425 1596 2975 1602 2968 4 -4 834 -1012 1843 -2240z m-1919 2205
c-48 -94 -1486 -2768 -1566 -2913 l-95 -170 -53 -2 c-95 -5 -182 -78 -196
-165 -5 -31 -11 -37 -38 -42 -17 -3 -256 -4 -531 -1 -3493 35 -4404 45 -4712
51 l-361 6 -7 25 c-3 14 -5 27 -3 28 14 12 7554 3213 7571 3215 4 0 0 -15 -9
-32z m9391 -119 c169 -118 4658 -3332 4837 -3462 l147 -108 -19 -42 c-11 -23
-20 -56 -20 -74 0 -21 -6 -33 -17 -37 -83 -25 -2482 -416 -2551 -416 -10 0
-32 20 -50 45 -41 58 -100 89 -172 89 -30 -1 -64 -6 -76 -12 -18 -10 -26 0
-98 126 -82 143 -1962 3565 -2103 3827 -74 137 -79 152 -66 167 15 17 17 17
42 -1 14 -10 80 -56 146 -102z m-399 71 c17 -6 51 -11 78 -13 l48 -2 59 -145
c78 -189 1675 -4280 1745 -4471 l54 -146 -35 -53 c-19 -28 -35 -62 -35 -74 0
-11 -4 -26 -8 -32 -5 -8 -111 -13 -332 -18 -439 -9 -5238 -57 -5417 -55 -139
3 -143 3 -143 24 0 12 -11 43 -25 70 -13 27 -21 54 -16 59 87 115 3536 4330
3844 4699 77 92 144 167 147 167 4 0 20 -5 36 -10z m-32639 -196 l36 -32 -32
-153 c-60 -283 -323 -1428 -362 -1571 -7 -29 -15 -38 -32 -38 -61 -1 -158 -78
-173 -136 -7 -26 -7 -26 -83 -20 -42 4 -89 9 -106 11 -16 2 -75 9 -130 15
-208 23 -3018 370 -3177 393 -92 13 -169 25 -172 28 -2 2 -6 17 -8 33 -3 29
-2 29 177 98 238 92 3505 1301 3755 1389 107 38 204 73 215 78 17 7 23 2 37
-28 10 -20 34 -50 55 -67z m483 -64 c203 -127 1997 -1271 2213 -1413 148 -96
194 -137 155 -137 -30 0 -1311 281 -1664 365 l-152 36 -6 41 c-20 125 -112
197 -236 185 l-58 -5 -195 387 c-107 212 -216 432 -242 488 l-47 102 28 29
c16 16 34 27 39 24 6 -3 80 -49 165 -102z m32438 28 c167 -298 2040 -3714
2091 -3817 l39 -76 -24 -35 c-52 -75 -56 -165 -10 -233 l24 -35 -95 -148 c-52
-82 -99 -153 -104 -159 -5 -5 -40 -10 -77 -10 -37 0 -73 -3 -81 -5 -10 -4 -30
33 -68 125 -79 190 -1733 4429 -1733 4441 0 13 12 -2 38 -48z m-32461 -504
l235 -471 -36 -47 c-40 -53 -51 -95 -43 -172 l6 -54 -172 -121 c-95 -66 -283
-195 -418 -286 l-247 -165 -38 26 c-21 14 -44 26 -52 26 -8 0 -10 8 -7 23 3
12 23 108 46 212 51 243 235 1048 300 1317 l50 207 57 3 c41 2 61 -1 70 -12 7
-8 119 -227 249 -486z m12309 -372 c271 -184 2636 -1819 2779 -1921 l120 -86
6 -70 c5 -72 17 -104 52 -142 l20 -22 -28 -63 c-72 -162 -3087 -6250 -3241
-6545 -66 -126 -90 -163 -105 -163 -13 0 -19 7 -20 23 -1 12 -2 56 -3 97 -5
150 24 4407 30 4482 5 64 9 78 25 83 32 10 79 55 99 96 50 97 3 241 -91 279
l-29 12 0 647 c0 883 18 3258 25 3301 5 32 11 37 55 53 28 10 62 29 77 42 16
13 31 25 34 25 3 0 91 -58 195 -128z m-10876 -663 c476 -160 1072 -359 1325
-443 1073 -357 8521 -2859 8535 -2868 12 -7 11 -8 -5 -4 -11 3 -2598 622
-5750 1376 -5551 1328 -5990 1434 -6102 1466 -49 14 -53 18 -53 47 -1 18 -7
49 -14 69 l-13 36 221 155 c122 85 310 214 419 287 l197 132 35 -31 c42 -37
105 -55 160 -46 53 8 120 48 142 85 9 17 22 30 28 30 6 0 400 -131 875 -291z
m-15 130 c796 -177 976 -220 982 -239 28 -90 84 -150 159 -169 61 -16 117 -4
176 36 l51 35 136 -46 c206 -70 7081 -2569 7077 -2573 -1 -2 -1586 529 -3522
1178 -1935 650 -4000 1343 -4589 1540 -588 197 -1074 361 -1080 364 -24 12
104 -14 610 -126z m45705 -53 c12 -38 61 -91 104 -113 17 -9 54 -17 82 -17
l52 -1 46 -280 c108 -658 341 -2184 334 -2190 -2 -1 -21 -7 -43 -12 -22 -6
-47 -14 -55 -17 -20 -8 -123 56 -2105 1321 -2115 1349 -1904 1211 -1905 1249
l0 32 175 7 c191 8 2686 51 3067 52 l237 2 11 -33z m-51615 -81 c181 -19 2995
-365 3250 -400 99 -14 185 -25 190 -25 6 0 15 -20 21 -46 12 -52 26 -38 -171
-181 -244 -177 -6372 -4545 -6524 -4650 -133 -92 -166 -111 -181 -103 -11 6
-22 15 -25 20 -4 6 23 66 59 135 79 148 2729 4918 2809 5055 42 72 60 94 74
92 92 -15 112 -14 167 11 43 20 62 36 84 71 25 42 29 45 62 40 19 -2 103 -11
185 -19z m-573 -52 c15 -17 10 -29 -59 -158 -126 -232 -2731 -4921 -2802
-5041 l-66 -112 -61 -4 c-74 -5 -129 -38 -163 -98 l-22 -39 -157 54 c-161 55
-3475 1255 -3705 1342 -127 48 -128 48 -124 77 2 16 1 44 -3 63 l-8 33 177 98
c261 147 6544 3578 6771 3699 107 56 198 103 201 103 3 0 13 -8 21 -17z
m48315 -31 c13 -24 39 -48 67 -63 28 -14 46 -31 46 -42 0 -9 -16 -93 -36 -185
-52 -242 -1803 -7833 -1871 -8110 l-57 -233 -40 3 -40 3 -63 155 c-96 231
-2405 6058 -2479 6253 l-64 169 31 25 c48 41 73 99 73 170 l0 62 245 105 c488
208 4143 1724 4161 1725 3 1 15 -16 27 -37z m678 -167 c342 -217 3375 -2152
3506 -2238 l147 -95 -30 -59 c-25 -49 -29 -66 -25 -111 3 -29 15 -68 25 -86
l20 -34 -246 -244 c-203 -201 -5406 -5251 -5724 -5556 l-97 -93 -30 16 c-17 8
-28 21 -26 28 2 6 20 89 40 182 38 177 1860 8078 1896 8219 33 135 38 146 62
146 39 1 103 37 137 77 l34 40 85 -52 c47 -28 149 -91 226 -140z m-44358 -299
c243 -55 11722 -2802 11918 -2853 77 -20 144 -39 148 -44 11 -9 -15 -13 -278
-44 -269 -32 -18703 -1999 -18930 -2020 -93 -8 -189 -18 -212 -20 -41 -5 -43
-4 -58 31 -8 20 -12 40 -9 45 10 16 431 318 3514 2516 3110 2217 3330 2373
3348 2373 5 0 16 -7 23 -17 41 -49 153 -67 224 -34 39 17 105 81 105 101 0 13
-19 16 207 -34z m18638 -911 c1293 -13 2511 -27 2707 -31 l357 -7 6 -28 c10
-44 61 -107 107 -130 61 -31 133 -29 201 6 l54 27 164 -93 c245 -138 2448
-1416 2642 -1532 148 -88 168 -103 162 -121 -4 -12 -11 -39 -16 -61 l-10 -40
-205 -98 c-292 -139 -10037 -4670 -10229 -4756 -87 -39 -162 -71 -165 -71 -3
0 -14 18 -24 40 -10 22 -33 52 -52 66 -19 15 -34 34 -34 44 0 32 89 433 749
3390 585 2619 709 3173 726 3230 4 11 17 14 56 11 95 -6 179 47 210 133 8 22
21 37 33 39 40 8 227 7 2561 -18z m3654 -175 c237 -59 4778 -1266 5069 -1347
l202 -56 0 -44 c0 -91 63 -166 162 -193 l63 -17 27 -134 c59 -295 268 -1456
268 -1490 0 -9 -13 -22 -29 -29 -16 -6 -41 -24 -56 -40 l-27 -28 -151 85
c-224 126 -1949 1126 -2187 1268 l-205 123 3 60 c10 175 -172 277 -323 181
l-47 -30 -171 97 c-222 126 -2352 1361 -2604 1510 -169 101 -219 134 -198 134
3 0 95 -22 204 -50z m-6580 -166 c-42 -203 -1359 -6101 -1404 -6290 l-36 -151
-64 0 c-88 1 -149 -36 -187 -112 -16 -30 -28 -67 -28 -83 0 -16 -5 -28 -12
-28 -7 0 -161 -7 -343 -15 -181 -7 -436 -17 -565 -20 -129 -3 -308 -8 -397
-11 l-161 -5 -12 37 c-7 20 -30 54 -52 76 l-40 40 48 102 c57 121 2747 5553
3060 6178 120 241 219 436 221 434 2 -2 -11 -70 -28 -152z m23125 -199 c3 -13
8 -30 12 -38 6 -17 -80 -88 -1391 -1136 -1085 -868 -1011 -810 -999 -789 10
18 1249 1376 1481 1623 l141 151 66 -4 c106 -7 182 42 217 140 11 33 17 38 53
43 32 4 272 24 393 31 15 1 23 -5 27 -21z m-864 -75 c0 -5 14 -25 31 -44 17
-20 29 -40 27 -45 -1 -5 -52 -65 -113 -132 -167 -187 -1395 -1530 -1506 -1647
l-97 -103 -46 12 c-34 8 -58 9 -89 1 -23 -6 -45 -8 -48 -4 -23 26 -658 1032
-783 1240 l-68 113 25 19 c33 26 67 98 67 141 l0 35 303 52 c323 56 1574 261
1897 311 107 17 236 37 285 45 115 18 115 18 115 6z m924 -29 c14 -22 99 -51
148 -51 l53 0 78 -189 c104 -255 2382 -6001 2463 -6216 l65 -169 -23 -17 c-22
-17 -24 -17 -68 19 -156 126 -4672 3930 -4998 4210 -156 134 -202 178 -196
191 4 9 9 44 12 78 4 53 1 68 -22 109 -14 26 -25 48 -24 49 2 1 55 44 118 97
111 91 2210 1770 2320 1855 58 45 65 48 74 34z m-3722 -609 l62 3 84 -130
c114 -174 587 -925 692 -1098 45 -75 80 -140 77 -143 -3 -4 -28 6 -54 22 -72
42 -1121 743 -1127 753 -3 5 1 25 9 45 32 75 6 206 -46 239 -11 7 -19 15 -19
19 0 7 142 234 181 290 18 25 20 26 49 11 20 -10 51 -14 92 -11z m12910 -218
c22 -12 49 -15 95 -12 34 2 63 2 63 0 0 -2 18 -101 40 -220 46 -252 2067
-12324 2111 -12607 16 -104 29 -197 29 -205 0 -8 -23 -28 -51 -43 l-51 -28
-102 83 c-122 100 -7955 6682 -8111 6817 -60 52 -115 99 -122 105 -10 9 -9 21
3 56 17 49 13 104 -11 150 l-15 28 243 240 c266 263 5365 5212 5649 5483 97
93 182 169 188 169 6 0 25 -7 42 -16z m-13647 -294 l80 0 28 -54 28 -54 -130
-201 c-171 -263 -465 -704 -709 -1064 -152 -223 -199 -286 -211 -281 -9 4 -43
9 -77 12 -74 5 -124 -17 -176 -77 l-34 -40 -154 54 c-203 69 -4144 1498 -4324
1567 -76 29 -139 57 -140 63 0 5 15 13 35 18 35 8 5263 65 5559 60 80 -1 181
-2 225 -3z m-6486 -35 c25 -1 51 -3 56 -5 6 -1 15 -1 20 0 27 6 41 4 55 -10 8
-8 26 -17 40 -19 14 -1 27 -6 30 -11 7 -10 70 -42 70 -35 0 3 16 -12 35 -34
19 -21 49 -44 66 -51 28 -12 29 -15 24 -54 -3 -22 -14 -120 -25 -216 -35 -298
-150 -1141 -165 -1207 -3 -13 -9 -23 -14 -23 -16 0 -301 1546 -301 1634 0 23
36 49 54 38 5 -2 29 -6 55 -7z m7034 -157 c192 -123 1035 -688 1046 -702 8 -9
6 -27 -7 -66 l-17 -53 -130 -44 c-191 -65 -1884 -604 -2065 -658 -85 -25 -160
-48 -167 -50 -6 -2 -23 14 -38 36 l-26 40 48 77 c57 93 859 1295 935 1403 l53
76 30 -13 c43 -19 114 -16 160 5 22 11 46 20 53 20 7 1 64 -31 125 -71z
m-6162 -17 c323 -114 4055 -1468 4239 -1538 103 -39 155 -64 155 -73 0 -13
-42 -16 -265 -22 -482 -13 -4244 -54 -4511 -49 l-86 1 -12 41 c-14 48 -69 112
-111 129 -24 10 -28 17 -25 39 3 14 14 107 25 206 36 312 130 1006 162 1193
10 60 11 62 41 62 40 0 113 36 135 66 9 13 20 24 23 24 3 0 107 -36 230 -79z
m-3808 -90 c-5 -3 -117 -87 -249 -187 -348 -263 -12513 -9309 -12683 -9431
-114 -82 -146 -101 -157 -92 -8 6 -14 20 -14 30 0 10 510 1036 1133 2281
l1132 2263 53 6 c74 10 127 47 158 112 13 29 24 66 24 83 0 29 5 33 153 103
253 121 10140 4718 10302 4791 83 36 152 62 154 57 2 -5 -1 -12 -6 -16z
m-12933 10 c0 -5 3 -16 6 -24 4 -10 -46 -54 -163 -144 -163 -126 -8893 -6698
-9498 -7151 -396 -297 -365 -278 -406 -256 -62 32 -147 20 -230 -33 -25 -16
-28 -14 -195 82 -254 148 -8771 5191 -8907 5275 -65 40 -116 78 -113 84 3 6
10 29 17 51 7 22 13 41 14 42 2 4 203 30 400 53 235 26 18608 1987 18700 1995
39 3 81 8 95 10 14 3 68 7 120 11 52 3 97 8 99 10 9 8 61 4 61 -5z m13567
-182 c282 -161 1845 -1068 2086 -1211 172 -102 217 -133 212 -146 -45 -117 24
-252 143 -283 l52 -13 0 -370 c0 -516 -49 -4315 -56 -4347 -5 -22 -13 -28 -47
-32 -54 -7 -115 -52 -145 -107 -34 -64 -28 -152 14 -212 32 -45 95 -88 131
-88 19 0 21 -4 18 -32 -3 -18 -12 -105 -20 -193 -22 -216 -569 -4946 -597
-5160 l-23 -169 -61 -16 c-80 -21 -117 -49 -148 -112 -41 -82 -32 -143 33
-244 13 -20 4 -33 -130 -200 -228 -284 -2161 -2656 -2278 -2795 l-106 -126
-44 21 -44 21 6 250 c6 242 617 14933 637 15325 14 262 14 265 56 290 18 12
43 35 54 51 25 34 -2 45 257 -102z m-13497 67 c37 -33 129 -64 151 -50 5 3 9
-209 9 -533 0 -712 -18 -3312 -26 -3769 l-6 -362 -39 -11 c-22 -7 -58 -30 -82
-53 -23 -23 -45 -41 -49 -40 -5 1 -8 -3 -8 -9 0 -5 -4 -7 -10 -4 -5 3 -10 1
-10 -4 0 -6 -7 -11 -15 -11 -8 0 -15 -4 -15 -8 0 -4 -16 -14 -35 -21 -19 -7
-35 -17 -35 -22 0 -6 -4 -7 -10 -4 -5 3 -10 1 -10 -5 0 -6 -4 -8 -10 -5 -5 3
-10 1 -10 -5 0 -8 -6 -8 -20 0 -14 8 -20 8 -20 0 0 -6 -4 -8 -10 -5 -5 3 -10
1 -10 -5 0 -6 -4 -8 -10 -5 -5 3 -10 2 -10 -2 0 -5 -12 -10 -27 -11 -15 -1
-29 -6 -32 -10 -3 -5 -33 -10 -66 -11 -33 -1 -78 -10 -100 -20 -72 -32 -125
-113 -125 -193 0 -31 10 -28 -255 -97 -287 -75 -8560 -2143 -8865 -2216 l-265
-63 -17 21 c-10 12 -18 25 -18 28 0 11 98 85 4985 3764 4972 3742 5015 3774
5029 3775 5 0 25 -15 46 -34z m12715 -104 c-77 -76 -3058 -2967 -6625 -6423
-3567 -3456 -7095 -6875 -7840 -7598 -745 -722 -1379 -1334 -1408 -1359 -29
-24 -55 -43 -58 -40 -3 3 622 1258 1388 2789 l1393 2784 58 6 c77 8 143 49
174 109 20 37 24 56 21 110 l-3 66 135 104 c124 95 12552 9338 12790 9513 58
42 107 76 110 77 3 0 -58 -62 -135 -138z m114 -14 c-119 -171 -12013 -16600
-12173 -16815 l-121 -162 -40 6 c-52 7 -116 -11 -153 -42 -17 -14 -34 -25 -39
-25 -5 0 -108 40 -229 89 -289 117 -2947 1225 -3089 1288 l-110 49 -6 44 c-4
25 -14 63 -23 85 l-17 39 123 121 c219 215 15679 15196 15822 15332 77 73 142
131 144 128 2 -2 -37 -64 -89 -137z m174 28 c-47 -157 -6397 -19288 -6480
-19521 l-50 -140 -60 -6 c-62 -6 -122 -34 -147 -70 -13 -19 -19 -17 -177 52
-167 73 -4898 2213 -5154 2331 -260 121 -255 118 -255 155 0 46 -25 102 -62
140 -17 17 -28 38 -25 45 2 7 85 126 184 263 268 374 11863 16388 12035 16622
l148 201 29 -11 29 -11 -15 -50z m109 -113 c-4 -201 -616 -14917 -638 -15354
l-17 -325 -35 -2 c-66 -5 -130 -50 -164 -116 -16 -31 -19 -54 -16 -106 l4 -67
-206 -135 c-516 -339 -5316 -3436 -5410 -3490 l-45 -26 -32 27 -32 27 59 185
c134 422 6426 19366 6471 19487 16 41 25 52 42 52 22 0 22 -1 19 -157z
m-35087 -991 c941 -341 1775 -645 1855 -675 l145 -55 7 -40 c9 -55 43 -117 76
-142 l29 -21 -24 -162 c-28 -188 -1255 -7547 -1281 -7682 -15 -76 -20 -90 -38
-93 -18 -3 -27 20 -92 225 -89 285 -2632 8782 -2712 9063 -41 143 -55 206 -47
209 7 2 30 23 52 46 l40 42 140 -48 c77 -26 910 -326 1850 -667z m45899 439
c28 -32 93 -61 137 -61 l36 0 61 -202 c72 -238 1531 -5321 1592 -5547 39 -142
41 -156 26 -167 -20 -14 -29 -6 -267 276 -266 314 -3907 4655 -3995 4764 l-81
99 23 34 c22 32 29 57 36 122 3 22 16 29 118 63 154 52 1960 626 2125 676
l130 39 19 -36 c10 -20 28 -47 40 -60z m414 -88 c59 -48 305 -254 547 -458
2607 -2196 4234 -3567 4391 -3702 l191 -164 -18 -37 c-13 -24 -19 -57 -19 -98
l0 -61 -127 -58 c-206 -92 -2902 -1261 -3083 -1335 l-165 -69 -28 35 c-37 44
-95 74 -145 74 l-39 0 -61 203 c-76 252 -1536 5338 -1592 5546 -23 84 -40 155
-38 157 6 5 73 52 76 53 2 1 52 -38 110 -86z m-3265 -644 c2 -2 11 -22 22 -44
11 -22 21 -43 23 -47 2 -5 -4001 -3921 -4842 -4735 l-208 -203 -25 19 c-13 11
-37 23 -53 26 l-30 7 0 161 c0 380 51 4334 58 4455 l7 134 39 13 c50 18 102
68 122 121 l16 42 371 7 c205 4 1189 17 2187 29 1660 21 2307 25 2313 15z
m117 -144 c14 -8 34 -15 45 -15 47 -1 50 -11 80 -265 38 -319 635 -5657 650
-5805 8 -91 18 -186 21 -211 5 -44 3 -47 -24 -58 -36 -15 -87 -67 -101 -103
l-10 -26 -88 19 c-212 47 -5110 1258 -5444 1346 l-177 46 -5 48 c-3 26 -13 61
-21 77 l-15 28 217 216 c181 179 4080 3987 4655 4546 98 94 181 172 185 172 4
-1 18 -7 32 -15z m341 -152 c349 -407 4179 -4978 4179 -4987 0 -2 -11 -24 -25
-47 -18 -33 -25 -59 -25 -100 l0 -56 -87 -31 c-192 -68 -2825 -933 -3141
-1031 -167 -52 -192 -58 -192 -42 0 19 -53 72 -91 91 -21 11 -54 20 -73 20
-40 0 -34 -20 -66 235 -30 231 -627 5562 -650 5800 -11 110 -22 218 -25 241
-4 35 -2 42 17 52 13 6 28 11 34 11 5 1 71 -70 145 -156z m-40987 -410 c181
-104 8712 -5154 8909 -5274 135 -83 137 -84 130 -114 -3 -16 -9 -48 -12 -70
-6 -38 -10 -42 -86 -83 -68 -38 -3664 -1882 -4330 -2221 -126 -65 -271 -137
-321 -160 l-90 -43 -52 33 c-35 21 -69 34 -108 38 l-56 6 -78 140 c-87 158
-3885 7318 -4034 7606 -53 102 -96 189 -96 192 0 7 50 36 64 37 5 0 77 -39
160 -87z m-273 28 c14 -14 291 -534 2121 -3986 1986 -3746 2088 -3939 2088
-3953 0 -5 -11 -14 -25 -20 -14 -7 -39 -34 -56 -60 l-30 -49 -127 -6 c-165 -9
-4918 -9 -5083 -1 l-125 7 -23 49 c-16 36 -35 58 -69 79 -25 16 -52 29 -59 29
-18 0 -17 17 12 203 69 455 1276 7675 1290 7714 4 12 73 7 86 -6z m21603
-2766 c15 -25 44 -55 67 -68 l40 -24 -1130 -2262 c-746 -1491 -1136 -2261
-1146 -2261 -20 0 -19 29 5 290 36 385 380 3679 407 3902 l26 216 41 6 c83 13
161 83 172 158 6 35 9 37 48 42 80 11 975 41 1293 44 l151 2 26 -45z m-1784
-212 c-1 -95 -421 -4166 -434 -4208 -9 -29 -59 3541 -54 3813 l3 154 40 14
c22 7 56 30 76 51 29 32 86 69 97 64 1 -1 10 5 18 14 9 8 20 13 25 10 5 -4 9
-2 9 3 0 11 75 53 83 46 3 -3 19 2 36 10 17 9 42 17 56 18 14 1 25 6 25 10 0
4 5 8 10 8 6 0 10 -3 10 -7z m-710 -118 c0 -26 82 -100 126 -113 l41 -12 7
-102 c7 -104 56 -3461 56 -3833 l0 -201 -42 -11 c-74 -20 -134 -75 -160 -145
-5 -12 -291 49 -4758 1017 -3748 811 -4567 990 -4642 1011 -12 4 -18 15 -18
33 0 28 1 29 173 74 157 42 9032 2261 9137 2284 66 15 80 15 80 -2z m30172
-225 c23 -11 55 -20 70 -20 15 0 29 -3 31 -8 3 -4 21 -129 41 -277 53 -396
591 -4750 630 -5090 l32 -290 -35 -13 c-20 -7 -44 -16 -54 -19 -13 -4 -60 36
-185 159 -92 91 -995 981 -2007 1979 -1012 998 -1884 1860 -1938 1915 l-97
101 16 39 c9 21 18 61 19 89 l2 50 138 63 c179 82 2860 1244 3074 1332 l165
68 27 -29 c15 -16 47 -38 71 -49z m364 -57 c184 -151 7942 -6672 8092 -6802
97 -84 131 -119 126 -130 -4 -9 -9 -26 -11 -38 -4 -18 -11 -21 -32 -18 -14 3
-96 14 -181 25 -209 28 -7010 1054 -7175 1082 l-130 23 -11 53 c-19 86 -70
145 -142 165 -29 8 -44 18 -47 32 -14 59 -601 4765 -670 5375 -33 283 -33 272
13 303 20 14 40 26 43 26 4 1 60 -43 125 -96z m-11016 -1889 c2446 -604 2833
-701 2908 -725 19 -6 32 -17 32 -27 1 -9 7 -33 13 -52 l13 -35 -145 -99 c-195
-132 -5805 -3821 -6088 -4003 l-222 -142 -51 34 c-29 19 -55 35 -59 35 -4 0
-6 12 -4 28 1 15 10 101 18 192 18 182 562 4890 595 5145 12 88 25 169 30 181
5 13 21 24 41 28 48 9 101 48 123 88 l19 34 106 -24 c58 -13 1260 -309 2671
-658z m6807 376 c30 -36 82 -64 135 -74 22 -4 39 -14 42 -24 3 -9 21 -120 40
-247 51 -333 1063 -7430 1077 -7553 11 -97 11 -103 -7 -117 -10 -8 -24 -15
-30 -15 -6 0 -67 78 -136 173 -165 227 -4388 6194 -4535 6406 l-113 165 24 25
c33 34 56 92 56 138 l0 38 258 87 c616 209 3122 1026 3150 1027 7 1 25 -13 39
-29z m2229 -1931 c1061 -1045 2009 -1981 2107 -2079 l179 -178 -21 -40 c-37
-72 -23 -182 30 -238 l20 -21 -158 -189 c-201 -240 -2405 -2818 -2652 -3103
-102 -117 -193 -222 -201 -232 -15 -19 -16 -19 -55 1 -21 11 -59 20 -82 20
-24 0 -43 4 -43 8 0 5 -15 108 -34 228 -87 555 -1101 7687 -1093 7689 1 0 16
8 32 17 17 10 33 18 36 18 4 0 875 -855 1935 -1901z m-37801 1261 c132 -26
8852 -1913 9075 -1965 200 -46 188 -41 196 -78 8 -40 31 -86 56 -113 l19 -21
-133 -159 c-195 -232 -3949 -4612 -4051 -4725 l-86 -97 -48 25 c-41 21 -57 24
-110 19 l-62 -5 -109 147 c-143 192 -4633 6426 -4818 6689 -117 165 -140 204
-129 213 8 6 23 31 35 55 14 30 26 42 38 39 9 -2 67 -13 127 -24z m-631 -142
c-172 -198 -1648 -1839 -1735 -1931 l-84 -87 -45 16 c-117 42 -249 -38 -275
-167 -4 -25 -9 -26 -82 -32 -207 -17 -564 -41 -1278 -87 -900 -57 -1224 -74
-1232 -67 -11 11 9 27 85 67 149 80 4140 2125 4432 2271 171 86 299 144 304
139 5 -5 -32 -56 -90 -122z m163 42 c14 -11 39 -22 57 -25 l32 -6 27 -232 c42
-365 461 -4419 477 -4622 6 -71 12 -145 14 -163 4 -28 1 -34 -26 -48 l-32 -16
-91 93 c-94 97 -2093 2277 -2291 2499 l-112 124 27 40 c22 34 26 50 26 117 0
65 -4 82 -22 108 -13 16 -23 33 -23 36 0 8 170 200 959 1080 820 913 931 1035
944 1035 5 0 20 -9 34 -20z m356 -203 c190 -259 4726 -6557 4827 -6702 45 -66
86 -124 90 -130 5 -5 -4 -24 -19 -42 l-27 -32 -369 148 c-534 214 -3555 1447
-3782 1543 l-192 82 1 45 c2 65 -17 112 -60 154 -35 35 -104 67 -142 67 -23 0
-25 10 -50 230 -26 227 -454 4362 -474 4585 -22 230 -22 219 17 231 17 5 35 8
39 7 4 -2 67 -86 141 -186z m31906 -311 c45 -34 111 -48 163 -37 35 8 44 7 55
-7 89 -118 588 -820 2405 -3387 1179 -1666 2195 -3104 2257 -3193 l114 -164
-17 -34 c-9 -19 -16 -41 -16 -49 0 -21 -5 -20 -217 24 -224 47 -10623 2370
-10933 2442 -318 74 -287 62 -293 112 -2 23 -7 49 -10 57 -5 11 28 38 111 94
156 106 5879 3869 6097 4009 94 60 186 120 205 132 44 30 40 30 79 1z m-22450
-1683 c-17 -38 -639 -1283 -1382 -2768 l-1352 -2700 -66 3 c-73 4 -115 -9
-167 -53 l-33 -27 -127 47 c-127 48 -732 290 -954 381 l-118 49 0 48 c0 26 -7
64 -15 83 -8 20 -12 41 -8 48 17 28 375 448 2087 2446 1744 2035 2153 2510
2161 2510 2 0 -10 -30 -26 -67z m-12089 -140 c48 -91 158 -135 256 -103 l39
13 69 -74 c125 -134 2259 -2462 2345 -2559 46 -52 79 -96 72 -98 -6 -2 -73 26
-149 61 -218 103 -5026 2482 -5139 2543 -85 46 -103 59 -103 78 0 22 5 24 68
30 177 16 1887 128 2177 142 77 4 142 8 144 10 2 2 47 4 100 4 l96 0 25 -47z
m-3024 -160 c4 -21 15 -55 26 -76 l19 -38 -83 -97 c-111 -129 -4918 -5578
-5121 -5805 -120 -133 -164 -176 -176 -171 -9 4 -30 12 -47 17 l-31 11 -7 191
c-12 339 -106 5241 -106 5527 l0 276 29 7 c54 12 117 60 140 107 11 24 21 54
21 66 l0 22 2665 0 2664 0 7 -37z m2914 -1290 c1207 -597 2346 -1161 2531
-1254 l337 -169 -8 -37 c-10 -41 -4 -85 16 -124 13 -25 9 -30 -144 -195 -206
-223 -5666 -6007 -5802 -6147 l-105 -108 -49 13 -49 13 7 165 c4 91 9 194 12
230 3 36 126 1915 274 4175 256 3896 295 4470 305 4522 4 14 23 30 59 46 38
18 63 38 81 65 l26 40 157 -75 c86 -42 1145 -564 2352 -1160z m-8486 929 c12
-359 106 -5252 106 -5529 l0 -271 -29 -7 c-17 -3 -48 -20 -70 -36 -23 -16 -44
-29 -47 -29 -13 0 -3287 1777 -3698 2008 l-172 96 0 66 c1 54 -4 74 -29 117
l-30 53 200 198 c203 202 3382 3330 3553 3497 l94 91 57 -29 58 -28 7 -197z
m5745 178 c12 0 13 -24 8 -162 -7 -171 -532 -8187 -567 -8653 -11 -148 -23
-280 -25 -292 -3 -13 -20 -30 -38 -39 -17 -9 -44 -27 -58 -40 l-25 -24 -180
108 c-203 123 -4093 2554 -4339 2712 -88 56 -167 107 -176 113 -13 8 -15 17
-7 45 13 47 2 113 -26 154 l-23 34 116 135 c173 200 4974 5641 5123 5805 l128
142 37 -19 c21 -10 44 -19 52 -19z m46311 -980 c236 -32 6738 -1012 7045
-1061 105 -17 194 -35 199 -40 6 -6 2 -9 -10 -9 -10 0 -98 -9 -194 -20 -216
-25 -4593 -463 -4852 -485 l-187 -17 -36 41 c-59 65 -154 87 -251 56 -24 -7
-54 15 -1064 801 -832 648 -925 722 -924 735 1 5 2 15 3 22 0 9 11 12 29 10
15 -2 124 -17 242 -33z m-125 -185 c179 -136 1481 -1148 1671 -1300 l112 -89
-24 -36 c-14 -20 -28 -56 -32 -80 l-7 -44 -120 -48 c-153 -62 -4669 -1788
-4874 -1863 -84 -30 -154 -54 -155 -53 -1 2 -10 16 -20 31 -20 32 -27 19 78
147 101 123 2746 3216 2853 3336 73 83 92 99 108 93 39 -15 125 -10 165 11 21
11 42 24 45 30 4 7 11 7 18 2 7 -5 89 -67 182 -137z m7421 -1004 l21 -39 -101
-100 c-103 -101 -4775 -4448 -4944 -4600 l-93 -83 -35 30 c-19 17 -39 31 -43
31 -16 0 -16 3 -131 2030 -50 877 -93 1683 -97 1791 l-6 195 46 27 c63 37 100
101 101 173 1 62 -28 52 246 84 142 16 4390 442 4650 466 41 4 138 12 215 19
77 7 142 13 145 14 3 0 15 -17 26 -38z m-22538 -85 c202 -42 10790 -2406
11074 -2474 l201 -47 14 -39 c7 -22 24 -53 37 -70 l24 -32 -111 -159 c-169
-244 -3162 -4485 -3310 -4690 -71 -99 -130 -181 -131 -182 -1 -1 -19 2 -41 7
-48 11 -117 -3 -157 -31 l-28 -20 -384 378 c-998 984 -7376 7317 -7380 7329
-4 11 14 64 22 64 1 0 78 -15 170 -34z m3652 -3911 c2128 -2111 3872 -3845
3875 -3853 3 -8 3 -17 1 -20 -3 -3 -83 27 -178 65 -184 75 -9930 4211 -10158
4311 l-134 59 -14 53 c-7 30 -22 66 -33 82 -12 16 -17 33 -13 40 22 36 2238
2762 2429 2988 98 116 90 111 153 95 43 -12 60 -12 103 -1 28 8 55 18 61 24 6
6 17 8 25 3 8 -4 1755 -1735 3883 -3846z m-28475 3362 c298 -118 3712 -1511
3926 -1601 l156 -67 0 -62 c0 -34 5 -73 12 -85 7 -13 11 -25 9 -27 -41 -36
-1879 -1155 -1897 -1155 -4 0 -16 9 -26 20 -31 34 -98 53 -170 48 l-65 -6 -98
127 c-120 154 -1873 2476 -2030 2688 -62 84 -112 155 -112 158 0 11 43 64 49
61 3 -2 114 -46 246 -99z m-538 17 c39 -18 42 -22 48 -69 6 -50 -39 -4288 -52
-4837 -5 -235 -9 -288 -20 -288 -47 0 -146 -84 -159 -134 -7 -28 5 -24 -248
-76 -246 -51 -5124 -977 -5401 -1026 -152 -27 -210 -34 -213 -25 -2 6 -15 25
-29 42 l-25 29 65 73 c66 74 5553 5889 5831 6180 83 86 153 156 156 154 3 -2
24 -12 47 -23z m42223 -14 c19 -45 85 -97 141 -111 36 -10 51 -18 54 -33 13
-63 224 -3778 225 -3951 0 -6 -26 -16 -58 -23 -41 -8 -71 -22 -99 -47 l-41
-35 -144 54 c-352 133 -807 319 -3103 1274 -2307 959 -2143 889 -2141 917 1
31 -79 -1 2621 1031 2134 815 2498 953 2521 954 6 0 17 -14 24 -30z m-41920
-128 c147 -190 1958 -2591 2060 -2730 l82 -113 -20 -22 c-55 -61 -71 -133 -45
-209 l19 -57 -165 -144 c-210 -182 -1767 -1511 -1963 -1675 l-147 -123 -40 12
-41 12 -1 86 c-3 250 3 981 21 2566 21 1935 28 2435 36 2481 5 29 20 38 94 52
3 1 52 -61 110 -136z m-15506 -1158 c269 -144 3325 -1806 3518 -1915 l166 -94
-5 -65 c-5 -54 -2 -75 16 -114 11 -27 17 -54 13 -61 -4 -8 -59 -71 -122 -142
-248 -276 -8819 -9703 -8887 -9773 -39 -42 -81 -88 -93 -103 -23 -29 -28 -31
-48 -19 -9 6 10 65 77 233 125 316 4736 11654 4831 11879 l78 185 70 -3 c79
-4 121 10 167 58 16 17 31 30 33 30 3 0 86 -43 186 -96z m20416 -621 c165 -62
732 -290 890 -357 l105 -45 -3 -38 c-2 -21 -5 -39 -7 -41 -13 -14 -3352 -672
-3411 -672 -32 0 -6 20 144 115 216 136 1326 814 1552 948 166 99 186 108 205
96 54 -35 93 -49 135 -49 62 0 143 39 172 83 20 31 25 34 48 25 14 -5 90 -34
170 -65z m32013 -173 c418 -171 2417 -1004 2414 -1006 -3 -4 -2128 841 -2418
960 -162 67 -186 80 -182 97 3 10 7 19 9 19 2 0 82 -32 177 -70z m-40 -174
c79 -83 641 -684 1248 -1336 950 -1020 1195 -1284 1326 -1431 l24 -26 -21 -44
c-11 -24 -20 -58 -20 -75 l0 -31 -357 -111 c-580 -181 -896 -273 -903 -265 -3
4 -18 24 -33 44 -38 53 -103 82 -172 77 l-55 -3 -80 200 c-105 266 -1022 2666
-1116 2920 l-73 200 25 21 c15 12 35 19 45 17 10 -3 83 -73 162 -157z m227 6
c359 -141 4750 -1890 4892 -1949 81 -33 116 -52 113 -61 -3 -8 -5 -37 -5 -66
l0 -53 -102 -32 c-337 -105 -1851 -570 -1996 -613 l-174 -50 -36 35 c-74 72
-168 87 -254 40 l-50 -27 -71 76 c-1091 1167 -2613 2802 -2615 2809 -2 6 5 6
20 0 12 -5 138 -54 278 -109z m-416 -76 c78 -197 1104 -2879 1160 -3034 l38
-103 -45 -40 c-51 -45 -83 -119 -74 -174 l5 -32 -81 -26 c-641 -198 -2734
-841 -2891 -887 -198 -60 -209 -62 -219 -44 -6 11 -27 35 -47 55 l-38 36 303
679 c839 1885 1579 3539 1639 3664 l36 75 73 1 73 0 68 -170z m-423 -182
c-271 -612 -1659 -3712 -1735 -3874 l-82 -175 -36 3 c-122 11 -227 -88 -228
-213 l0 -51 -117 -43 c-307 -112 -1113 -386 -1116 -379 -1 1 -15 17 -31 35
l-28 31 111 161 c108 156 3155 4474 3301 4678 40 57 75 101 77 99 2 -2 -50
-124 -116 -272z m-30353 32 c12 -32 54 -77 96 -101 16 -9 11 -29 -53 -225 -90
-277 -1958 -5825 -2002 -5948 l-34 -93 -50 6 c-27 4 -53 10 -56 14 -4 3 -27
80 -53 171 -61 220 -1272 4824 -1342 5104 l-55 219 36 29 c45 38 75 96 75 146
l0 39 223 47 c374 78 3142 620 3192 625 6 1 17 -14 23 -33z m652 -103 c304
-124 2962 -1234 3055 -1276 69 -30 99 -49 95 -58 -2 -8 -5 -47 -5 -88 l-1 -73
-84 -76 c-119 -105 -5395 -4612 -5504 -4701 l-89 -72 -26 23 c-14 12 -29 25
-34 29 -4 3 20 88 52 190 69 211 1936 5760 2003 5949 l43 124 56 11 c70 14
122 46 149 90 l21 34 67 -25 c37 -14 128 -50 202 -81z m15688 -337 c200 -81
10037 -4257 10193 -4327 l116 -52 -1 -41 c0 -23 2 -53 6 -68 8 -25 1 -31 -115
-115 -141 -103 -5182 -3638 -5450 -3823 l-179 -122 -54 27 c-46 23 -63 27
-116 23 -35 -3 -69 -7 -76 -9 -9 -3 -44 51 -99 151 -100 181 -4193 7874 -4337
8152 l-98 188 21 26 c12 15 21 33 21 40 0 8 2 14 5 14 3 0 76 -29 163 -64z
m-518 -11 c10 -12 -5 -37 -81 -142 -172 -238 -4357 -5869 -4446 -5983 l-88
-112 -81 -2 -82 -1 -67 155 c-100 231 -725 1724 -822 1963 l-84 208 29 24 c44
37 76 118 68 175 -3 25 -7 54 -8 65 -4 26 -119 -49 2827 1853 2440 1577 2803
1810 2816 1811 4 1 12 -6 19 -14z m305 -102 c21 -38 62 -113 93 -168 78 -143
4190 -7874 4301 -8087 61 -117 88 -179 80 -183 -16 -10 -59 -106 -59 -131 0
-17 -8 -23 -32 -28 -240 -43 -4112 -566 -4196 -566 -14 0 -30 17 -50 54 -25
43 -41 59 -83 80 -29 14 -61 26 -70 26 -15 0 -17 22 -23 213 -7 227 -56 7629
-56 8379 l0 447 28 14 c15 8 28 15 29 16 0 1 18 -29 38 -66z m-187 37 c19 -5
35 -10 37 -12 2 -2 6 -91 10 -198 7 -228 55 -7393 55 -8252 l0 -583 -45 -18
c-25 -11 -55 -31 -68 -46 l-23 -28 -184 105 c-251 142 -3966 2305 -4208 2450
l-193 115 7 31 c18 78 -1 152 -53 208 l-25 27 78 108 c81 111 4072 5487 4312
5808 213 283 232 307 251 299 9 -3 31 -10 49 -14z m17522 -110 c8 -5 11 -10 5
-10 -5 0 -17 5 -25 10 -8 5 -10 10 -5 10 6 0 17 -5 25 -10z m-37150 -240 c27
-6 58 -9 69 -5 22 7 20 11 76 -190 59 -211 1324 -5019 1356 -5153 36 -151 36
-152 3 -152 -14 0 -39 -8 -55 -17 -32 -19 -17 -28 -149 87 -84 75 -3426 3112
-3550 3227 l-65 60 0 85 c0 75 -3 89 -27 125 l-27 42 177 154 c213 185 1844
1576 1991 1699 l105 87 23 -19 c13 -10 45 -23 73 -30z m-13520 -268 c172 -104
4163 -2598 4378 -2736 l173 -111 -6 -35 c-4 -19 -8 -36 -9 -37 -6 -6 -560
-105 -2116 -379 -1790 -315 -2137 -374 -2180 -374 -18 1 -33 12 -53 41 -18 27
-45 48 -77 62 -39 18 -49 28 -54 52 -20 109 -336 3411 -336 3512 0 11 17 27
46 43 26 13 51 32 57 41 13 21 6 24 177 -79z m-380 20 c25 -8 46 -16 47 -17 9
-5 299 -3018 323 -3345 6 -85 13 -167 15 -181 4 -24 0 -27 -36 -33 -55 -9
-133 -85 -149 -146 -11 -40 -9 -96 5 -133 8 -18 120 56 -4945 -3259 -4441
-2905 -4468 -2923 -4476 -2916 -2 3 58 74 133 159 219 245 8839 9725 8927
9817 57 59 84 81 95 76 9 -4 36 -14 61 -22z m21888 -523 c176 -75 4962 -2240
5293 -2394 l165 -78 -4 -54 c-6 -72 18 -133 71 -178 l41 -35 -33 -103 c-40
-123 -5248 -14834 -5329 -15053 -49 -131 -60 -154 -78 -154 -20 0 -21 6 -27
183 -4 100 -90 4020 -192 8712 -158 7313 -191 8909 -186 9041 1 15 11 24 42
33 44 13 114 71 124 102 4 10 9 19 11 19 3 0 49 -19 102 -41z m-396 -94 c-2
-11 -19 -100 -38 -197 -46 -238 -1762 -8338 -1821 -8595 -45 -198 -47 -203
-71 -203 -14 0 -50 -14 -81 -31 l-56 -32 -94 99 c-124 130 -3384 3645 -3480
3752 l-74 83 17 67 c9 37 16 84 16 105 0 47 -27 134 -52 166 -10 13 -15 27
-13 32 3 4 58 55 123 112 137 121 5114 4372 5372 4588 l175 147 40 -36 c26
-24 39 -43 37 -57z m77 -430 c28 -980 371 -17065 369 -17284 l-3 -245 -47 165
c-70 245 -2160 8006 -2211 8209 l-44 174 47 22 c73 34 120 110 120 194 0 20
-12 60 -26 89 -21 42 -37 58 -81 83 -48 27 -53 33 -49 57 3 14 15 76 27 136
27 143 1742 8242 1814 8566 30 136 55 251 55 255 0 5 5 2 9 -6 5 -8 14 -195
20 -415z m32231 216 c0 -19 53 -72 91 -91 47 -24 137 -26 179 -5 l30 15 79
-157 c86 -173 3178 -6727 3298 -6992 63 -139 72 -166 60 -178 -11 -12 -36 11
-163 144 -197 207 -5598 6003 -5775 6198 l-137 149 23 31 c34 45 48 100 41
155 l-6 48 142 45 c79 25 487 151 908 281 1267 389 1230 378 1230 357z
m-42607 -1094 c-20 -34 -2480 -3030 -2790 -3399 l-124 -147 -34 15 c-49 20
-103 17 -161 -10 l-50 -23 -135 116 c-215 185 -2320 2033 -2471 2168 l-137
123 25 43 c15 26 24 58 24 85 0 23 2 42 5 42 2 0 68 13 145 30 166 35 5208
994 5485 1042 l190 34 18 -54 c9 -29 14 -58 10 -65z m501 -155 c1166 -1145
2793 -2747 3083 -3035 l371 -370 -14 -46 c-7 -25 -14 -67 -14 -93 l0 -47 -52
-6 c-55 -7 -5655 39 -6313 51 l-370 7 -31 62 -31 62 136 169 c189 235 2583
3144 2690 3269 l88 102 38 -23 c73 -44 155 -40 226 10 19 13 38 25 43 25 5 1
73 -61 150 -137z m37786 -107 c34 -55 103 -90 175 -89 l61 0 58 -145 c80 -201
4673 -12214 4753 -12431 35 -96 71 -192 79 -213 8 -22 10 -37 5 -35 -16 6
-155 199 -4213 5874 -3578 5002 -4164 5824 -4192 5872 -5 8 4 26 23 47 34 39
55 103 49 151 l-4 32 181 56 c555 175 2972 914 2992 915 6 1 21 -15 33 -34z
m-35775 -1695 c759 -689 1421 -1293 1472 -1343 l91 -90 -31 -32 c-18 -17 -40
-44 -51 -59 l-18 -27 -77 73 c-269 257 -2905 2856 -2811 2771 25 -22 666 -604
1425 -1293z m-8771 865 c9 -35 70 -100 109 -116 17 -7 33 -13 34 -14 2 -1 12
-91 23 -201 20 -199 1040 -12094 1060 -12359 6 -77 12 -166 15 -197 4 -51 2
-58 -14 -58 -14 0 -45 57 -134 243 -152 319 -5341 11461 -5422 11642 -61 137
-62 140 -44 160 26 30 49 89 49 130 0 20 6 38 13 40 52 19 4207 751 4283 754
15 1 24 -7 28 -24z m425 -187 c250 -215 2498 -2189 2605 -2289 l38 -36 -18
-34 c-26 -49 -24 -133 5 -187 12 -24 42 -57 66 -74 25 -18 45 -40 45 -50 0
-38 -83 -490 -911 -4978 -785 -4255 -944 -5108 -953 -5117 -5 -6 -14 62 -36
287 -42 431 -1070 12457 -1070 12521 0 5 12 9 28 9 15 1 38 7 52 15 14 8 31
14 39 15 7 0 56 -37 110 -82z m22264 -87 c3 -9 38 -90 77 -181 89 -203 714
-1697 816 -1949 l75 -184 -24 -26 c-72 -77 -81 -190 -21 -269 l26 -33 -65
-132 c-84 -174 -6345 -12346 -6363 -12372 -8 -11 -14 -17 -14 -13 0 16 5197
14697 5316 15018 l57 155 58 1 c45 1 58 -2 62 -15z m18282 -11 c11 -17 44 -42
73 -57 46 -22 61 -25 116 -20 l63 6 140 -192 c135 -185 7998 -11180 8097
-11322 l49 -70 -40 40 c-41 41 -9381 10515 -9661 10834 -135 154 -151 176
-139 190 29 33 42 68 47 130 l5 63 50 19 c132 51 1155 406 1175 408 3 1 14
-13 25 -29z m-1547 -644 c40 -20 121 -23 163 -5 25 10 33 9 43 -2 7 -8 60 -66
117 -129 89 -97 9534 -10689 9728 -10910 146 -166 139 -154 117 -183 -13 -16
-22 -14 -147 39 -162 68 -15433 6843 -15671 6952 l-167 77 6 55 c4 39 1 67
-11 94 -9 22 -15 40 -14 41 36 31 5193 3649 5568 3906 l185 128 25 -24 c14
-12 40 -30 58 -39z m-44012 -32 c47 -14 100 -11 137 8 15 8 27 -12 93 -149
109 -228 5357 -11495 5448 -11697 70 -157 75 -170 58 -182 -9 -7 -20 -14 -24
-14 -4 0 -18 -15 -30 -34 l-24 -34 -184 68 c-242 89 -14628 5613 -14830 5694
l-154 63 -1 74 c0 41 -4 81 -8 90 -6 13 24 37 140 116 181 122 8620 5647 8996
5890 l269 173 33 -26 c19 -14 55 -32 81 -40z m12004 -1720 c1493 -13 2732 -28
2753 -32 21 -4 38 -11 37 -17 0 -5 -37 -23 -83 -38 -98 -33 -5781 -1740 -6117
-1837 l-235 -68 -34 40 c-41 48 -98 78 -150 78 -35 0 -40 3 -45 28 -29 136
-246 1616 -246 1675 0 6 21 23 46 37 50 26 90 77 100 127 l6 32 87 3 c125 5
844 0 3881 -28z m4900 -1699 c744 -803 1373 -1482 1399 -1510 25 -27 -631 625
-1457 1450 -827 825 -1513 1513 -1524 1528 l-20 29 40 38 c22 22 44 49 47 61
7 20 14 15 85 -57 42 -43 686 -736 1430 -1539z m-2047 1554 c35 -50 104 -95
173 -110 45 -10 68 -9 136 4 78 15 82 15 107 -3 14 -10 871 -864 1904 -1897
l1877 -1879 -11 -32 c-12 -36 -25 -38 -106 -23 -26 6 -115 22 -198 36 -545 96
-10354 1940 -10361 1948 -1 1 -4 15 -6 32 -3 29 -3 29 117 67 310 99 6312
1896 6335 1897 3 0 17 -18 33 -40z m-7023 -26 c0 -3 16 -103 35 -222 41 -259
154 -1031 190 -1296 24 -176 25 -191 9 -200 -135 -81 -155 -257 -40 -352 l35
-29 -53 -209 c-85 -334 -1986 -7398 -1996 -7420 -13 -26 -115 -586 845 4620
810 4389 940 5089 951 5107 6 10 24 11 24 1z m20860 -130 c209 -118 4116
-2394 4280 -2493 l145 -88 1 -64 c0 -38 6 -75 16 -93 l16 -30 -146 -131 c-202
-180 -10906 -9482 -11065 -9616 -70 -59 -132 -108 -136 -108 -5 0 -14 7 -21
15 -10 12 11 61 122 282 190 378 6049 11771 6220 12094 l140 266 50 -13 c65
-17 133 -3 179 36 19 16 41 27 49 24 8 -3 75 -39 150 -81z m9114 -2124 c20
-44 84 -97 128 -106 30 -6 29 0 53 -208 9 -71 20 -166 25 -210 32 -257 326
-3022 336 -3161 l7 -90 -34 -14 c-19 -7 -48 -24 -65 -36 l-32 -23 -338 227
c-490 330 -4085 2772 -4241 2882 -73 51 -133 95 -133 99 1 3 7 29 14 56 l13
50 179 27 c272 42 3989 543 4050 547 15 1 25 -10 38 -40z m499 -85 c178 -76
15435 -6845 15659 -6948 97 -44 175 -82 174 -84 -2 -1 -88 14 -192 33 -293 56
-14828 2960 -15101 3018 l-241 51 -7 45 c-14 92 -66 155 -151 184 l-39 14 -22
179 c-12 98 -92 829 -178 1624 -143 1331 -166 1554 -180 1710 -3 30 -8 76 -11
103 -6 45 -5 47 18 47 24 0 110 48 122 69 4 6 9 11 12 11 3 0 65 -25 137 -56z"/>
</g>
</svg>
